<?xml version="1.0" encoding="UTF-8" standalone="no"?><!DOCTYPE svg PUBLIC "-//W3C//DTD SVG 1.1//EN" "http://www.w3.org/Graphics/SVG/1.1/DTD/svg11.dtd"><svg width="100%" height="100%" viewBox="0 0 48 48" version="1.1" xmlns="http://www.w3.org/2000/svg" xmlns:xlink="http://www.w3.org/1999/xlink" xml:space="preserve" xmlns:serif="http://www.serif.com/" style="fill-rule:evenodd;clip-rule:evenodd;stroke-linejoin:round;stroke-miterlimit:2;"><path d="M30.24,34.4l9.6,2.56l-0.64,3.04l-15.04,-4l-15.04,4l-0.8,-3.04l9.6,-2.56l-9.76,-2.56l0.8,-3.04l15.04,4l15.04,-4l0.8,3.04l-9.6,2.56m0.272,-16.928c-0.256,-0.352 -0.576,-0.672 -0.912,-0.944c-0.72,-0.688 -1.6,-1.184 -2.304,-1.92c-1.696,-1.68 -2.032,-4.464 -0.992,-6.608c-1.04,0.272 -2.016,0.864 -2.832,1.52c-2.928,2.416 -4.096,6.64 -2.672,10.288c0,0.112 0.064,0.24 0.064,0.384c0,0.256 -0.176,0.48 -0.4,0.608c-0.351,0.093 -0.724,-0.057 -0.912,-0.368c-1.28,-1.648 -1.488,-4.016 -0.608,-5.92c-1.904,1.584 -2.944,4.24 -2.768,6.752c0.032,0.576 0.112,1.136 0.304,1.712c0.176,0.704 0.464,1.392 0.832,2c1.2,2 3.328,3.44 5.6,3.728c2.432,0.32 5.024,-0.144 6.896,-1.84c2.08,-1.92 2.832,-4.992 1.728,-7.664l-0.16,-0.272c-0.224,-0.528 -0.528,-1.008 -0.912,-1.44l0.048,-0.016m-3.584,7.28c-0.32,0.288 -0.832,0.576 -1.248,0.704c-1.264,0.448 -2.544,-0.192 -3.28,-0.96c1.344,-0.32 2.144,-1.344 2.4,-2.368c0.176,-0.928 -0.176,-1.68 -0.336,-2.576c-0.128,-0.848 -0.112,-1.584 0.208,-2.384c0.208,0.432 0.432,0.88 0.704,1.232c0.88,1.152 2.256,1.664 2.544,3.2c0.032,0.208 0.08,0.352 0.08,0.528c0,0.96 -0.384,1.984 -1.088,2.624" style="fill:#3a3a3a;fill-rule:nonzero;"/></svg>