<?xml version="1.0" encoding="UTF-8" standalone="no"?><!DOCTYPE svg PUBLIC "-//W3C//DTD SVG 1.1//EN" "http://www.w3.org/Graphics/SVG/1.1/DTD/svg11.dtd"><svg width="100%" height="100%" viewBox="0 0 1024 1024" version="1.1" xmlns="http://www.w3.org/2000/svg" xmlns:xlink="http://www.w3.org/1999/xlink" xml:space="preserve" xmlns:serif="http://www.serif.com/" style="fill-rule:evenodd;clip-rule:evenodd;stroke-linejoin:round;stroke-miterlimit:2;"><g><path d="M514.22,130.85c-0.18,13.927 -0.29,27.977 -0.33,42.15c-0.007,3.38 -1.903,5.133 -5.69,5.26c-3.62,-0.993 -5.42,-3.387 -5.4,-7.18l-0.11,-39.2c0.08,-8.227 0.183,-15.687 0.31,-22.38c0.11,-6 8.27,-6.52 10.63,-1.65c0.42,0.867 0.63,2.16 0.63,3.88c0.013,6.28 0,12.653 -0.04,19.12Z" style="fill:#fff;fill-rule:nonzero;"/><path d="M267.93,161.74c-7.52,2.167 -11.547,7.177 -12.08,15.03c-0.17,2.48 0.56,8.19 -1.11,10.83c-2.28,3.6 -8.2,2.6 -9.88,-0.9c-2.15,-4.51 0.41,-10.36 -1.8,-15.09c-2.26,-4.83 -4.83,-8.56 -10.13,-10.28c-4.04,-1.32 -8.26,0.65 -11.52,-2.75c-2.36,-2.45 -1.85,-6.26 0.85,-8.08c0.86,-0.58 2.417,-0.927 4.67,-1.04c11.39,-0.6 17.25,-10.24 16.86,-20.94c-0.033,-0.907 0.373,-2.017 1.22,-3.33c1.6,-2.46 4.29,-3.92 7.1,-2.75c3.97,1.66 3.56,5.82 3.52,9.57c-0.09,7.38 8.48,15.22 15.37,17.31c2.99,0.91 7.34,-0.37 8.67,3.91c0.827,2.667 0.253,4.817 -1.72,6.45c-2.89,2.4 -6.55,1.07 -10.02,2.06Zm-17.38,-17.51c-0.077,-0.157 -0.238,-0.257 -0.413,-0.257c-0.17,0 -0.328,0.096 -0.407,0.247c-2.107,4.2 -5.237,7.36 -9.39,9.48c-0.05,0.026 -0.096,0.06 -0.135,0.101c-0.185,0.196 -0.179,0.505 0.012,0.686c0.042,0.04 0.09,0.071 0.143,0.093c3.933,1.72 6.767,4.557 8.5,8.51c0.127,0.291 0.416,0.479 0.733,0.479c0.256,0 0.497,-0.122 0.647,-0.329c2.573,-3.5 5.657,-6.467 9.25,-8.9c0.144,-0.101 0.229,-0.266 0.229,-0.442c0,-0.2 -0.111,-0.385 -0.289,-0.478c-3.993,-2.047 -6.953,-5.11 -8.88,-9.19Z" style="fill:#ffab00;fill-rule:nonzero;"/><path d="M433.24,140.61c1.36,0.26 2.317,1.133 2.87,2.62c2.06,5.547 3.943,12.087 5.65,19.62c0.84,3.67 0.67,7.4 -3.33,8.56c-5.38,1.57 -6.7,-3.8 -7.69,-7.67c-2.56,-9.913 -4.147,-16.927 -4.76,-21.04c2.847,-2.88 5.267,-3.577 7.26,-2.09Z" style="fill:#fff;fill-rule:nonzero;"/><path d="M590.61,142.83c0.567,2.56 0.727,4.37 0.48,5.43c-1.287,5.513 -2.473,11.043 -3.56,16.59c-0.6,3.05 -2.21,7.07 -5.81,6.54c-4.073,-0.607 -5.777,-3.067 -5.11,-7.38c1.24,-8.06 3.233,-15.72 5.98,-22.98c3.973,-1.127 6.647,-0.527 8.02,1.8Z" style="fill:#f5f5f5;fill-rule:nonzero;"/><path d="M748.89,177.78c-3.66,-1.81 -8.56,-2.71 -9.19,-7.56c-0.39,-2.93 2.59,-6.09 5.13,-6.66c8.62,-1.94 3.13,-13.13 10.93,-14.62c9.04,-1.74 5.84,8.44 9.54,12.01c2.51,2.42 6.65,2.09 8.29,5.5c2.92,6.08 -3.13,9.42 -8.16,11.44c-1.16,0.47 -1.82,1.99 -1.86,3.34c-0.15,4.68 -4.16,10.73 -9.12,7.76c-4.78,-2.87 -2.15,-9.53 -5.56,-11.21Zm7.02,-14.42l-3.43,6.43c-0.188,0.347 -0.118,0.78 0.17,1.05l4.1,3.92c0.293,0.287 0.553,0.257 0.78,-0.09c0.813,-1.24 1.84,-2.3 3.08,-3.18c0.061,-0.043 0.12,-0.089 0.176,-0.137c1.066,-0.907 1.193,-2.533 0.283,-3.602c-0.047,-0.056 -0.097,-0.11 -0.149,-0.161l-4.36,-4.32c-0.26,-0.26 -0.477,-0.23 -0.65,0.09Z" style="fill:#ffab00;fill-rule:nonzero;"/><path d="M380.38,195.79c3,6.3 5.96,12.62 8.88,18.96c1.82,3.95 0.73,8.56 -3.98,9.37c-5.41,0.92 -7.76,-7.55 -9.88,-12.69c-6.267,-13.293 -12.757,-26.513 -19.47,-39.66c-1.84,-3.59 -2.08,-6.3 1.3,-8.79c3.7,-1.38 6.37,-0.44 8.16,2.85c5.34,9.8 10,19.98 14.99,29.96Z" style="fill:#fff;fill-rule:nonzero;"/><path d="M663.1,167.35c-0.033,1.367 -0.18,2.31 -0.44,2.83c-7.76,15.387 -15.37,30.807 -22.83,46.26c-1.08,2.72 -1.877,4.47 -2.39,5.25c-3.46,5.23 -12.26,1.66 -9.52,-5.47c1.453,-3.78 3.503,-8.08 6.15,-12.9c6.42,-14.067 13.343,-27.603 20.77,-40.61c5.047,-0.793 7.8,0.753 8.26,4.64Z" style="fill:#f5f5f5;fill-rule:nonzero;"/><path d="M900.01,224.12c-6.833,2.053 -11.293,6.407 -13.38,13.06c-1.4,4.45 -0.28,10.15 -1.06,14.09c-0.55,2.75 -4.22,4.34 -6.86,3.64c-6.71,-1.77 -3.17,-11.42 -4.84,-16.47c-1.98,-6 -7.01,-12.57 -13.33,-14.35c-2.24,-0.64 -9.28,0.2 -11.82,-2.39c-2.32,-2.36 -2.04,-6.05 0.6,-7.97c2.61,-1.88 5.88,-0.62 8.91,-1.87c7.62,-3.147 12.72,-8.537 15.3,-16.17c1.68,-4.94 -0.65,-11.55 1.55,-15.77c2.92,-5.64 10.28,-4.08 10.9,2.08c0.36,3.72 -0.18,8.92 1.07,13.11c2.98,9.987 9.667,15.783 20.06,17.39c2.7,0.42 4.467,0.987 5.3,1.7c2.79,2.4 1.71,7.09 -1.63,8.72c-3.13,1.54 -7.23,0.13 -10.77,1.2Zm-20.08,-20.43c-2.66,5.333 -6.48,9.603 -11.46,12.81c-0.138,0.088 -0.222,0.241 -0.222,0.405c0,0.164 0.084,0.317 0.222,0.405c4.567,2.993 8.193,6.847 10.88,11.56c0.019,0.033 0.042,0.063 0.069,0.09c0.172,0.176 0.456,0.182 0.629,0.013c0.028,-0.027 0.052,-0.059 0.072,-0.093c3,-4.993 7.07,-8.857 12.21,-11.59c0.078,-0.041 0.148,-0.093 0.209,-0.156c0.312,-0.325 0.298,-0.851 -0.03,-1.167c-0.062,-0.059 -0.132,-0.109 -0.209,-0.147c-5.313,-2.573 -9.13,-6.607 -11.45,-12.1c-0.081,-0.185 -0.265,-0.305 -0.467,-0.305c-0.19,0 -0.365,0.106 -0.453,0.275Z" style="fill:#ffab00;fill-rule:nonzero;"/><path d="M116.59,275.03c-2.97,-0.1 -6.88,0.31 -9.04,-2.32c-2.59,-3.15 -1.43,-7.97 2.56,-9.13c2.93,-0.85 7.1,-0.47 10.33,-2.11c5.453,-2.76 8.643,-7.173 9.57,-13.24c0.55,-3.63 -1.66,-15.58 6.22,-15.21c7.73,0.37 4.72,10.56 5.91,15.56c1.473,6.16 5.21,10.667 11.21,13.52c1.813,0.86 4.373,1.29 7.68,1.29c5.14,0.01 6.31,6.92 2.95,9.83c-3.51,3.06 -8.63,0.57 -12.77,2.46c-5.54,2.53 -8.77,7.49 -9.22,13.55c-0.21,2.93 0.19,6.56 -1.39,8.87c-2.09,3.04 -7.43,3.15 -9.21,-0.12c-1.77,-3.28 -0.29,-7.86 -1.3,-11.63c-1.72,-6.39 -6.71,-11.09 -13.5,-11.32Zm19.98,-16.01c-0.046,-0.09 -0.139,-0.148 -0.241,-0.148c-0.093,-0 -0.18,0.049 -0.229,0.128c-2.12,3.453 -4.837,6.343 -8.15,8.67c-0.135,0.095 -0.216,0.251 -0.216,0.417c0,0.169 0.085,0.328 0.226,0.423c3.18,2.167 5.76,4.903 7.74,8.21c0.1,0.161 0.277,0.258 0.466,0.258c0.202,-0 0.388,-0.111 0.484,-0.288c2.02,-3.84 4.943,-6.77 8.77,-8.79c0.146,-0.075 0.238,-0.227 0.238,-0.391c0,-0.18 -0.111,-0.343 -0.278,-0.409c-3.96,-1.607 -6.897,-4.3 -8.81,-8.08Z" style="fill:#ffab00;fill-rule:nonzero;"/><path d="M673.92,832.13l-24.74,12.53c-11.39,5.05 -23.23,10.59 -34.58,14.25c-51.97,16.78 -107.17,18.98 -161.45,12.23c-6.867,-0.853 -13.42,-2.023 -19.66,-3.51c-22.213,-5.313 -43.797,-12.64 -64.75,-21.98c-12.467,-5.42 -24.453,-11.883 -35.96,-19.39c-24.23,-15.08 -48.26,-35 -65.22,-57.07c-4.24,-5.52 -10.183,-13.923 -17.83,-25.21c-2.84,-4.21 -5.3,-9.15 -7.93,-13.77c-0.187,-0.327 -0.437,-0.383 -0.75,-0.17c-8.08,5.573 -16.807,9.37 -26.18,11.39c-30.6,6.59 -60,0.13 -84.75,-18.61c-3.753,-2.84 -7.46,-5.73 -11.12,-8.67c-0.26,-0.213 -0.557,-0.343 -0.89,-0.39c-9.007,-1.387 -17.803,-4.963 -26.39,-10.73c-9.933,-6.667 -18.327,-14.257 -25.18,-22.77c-2.9,-3.6 -6.34,-8.353 -10.32,-14.26c-5.1,-7.55 -10.06,-15.57 -13.08,-24.23c-5.72,-16.34 13.01,-25.88 25.28,-16.75c0.613,0.46 0.91,0.303 0.89,-0.47c-0.36,-11.09 1.08,-29.84 17.1,-28.96c13.74,0.75 15.59,14.95 15.95,25.42c0.008,0.252 0.217,0.456 0.47,0.456c0.119,0 0.233,-0.045 0.32,-0.126c14.1,-12.89 39.74,-18.97 53.19,-1.4c0.2,0.26 0.463,0.393 0.79,0.4c15.46,0.29 22.83,12.94 23.5,26.98c0.633,13.333 -2.12,25.947 -8.26,37.84c-1.32,2.57 -3.16,4.88 -4.86,7.39c-0.009,0.014 -0.018,0.028 -0.027,0.042c-0.382,0.615 -0.186,1.438 0.435,1.823c0.014,0.008 0.028,0.017 0.042,0.025c15.96,9.1 38.46,9.41 52.24,-4.5c0.813,-0.827 1.41,-1.72 1.79,-2.68c0.127,-0.32 0.12,-0.637 -0.02,-0.95c-0.84,-1.907 -1.727,-4.433 -2.66,-7.58c-12.5,-42.21 -15.05,-84.33 -9.49,-128.36c6.367,-50.413 25.5,-94.793 57.4,-133.14c6.173,-7.42 13.477,-15.323 21.91,-23.71c16.83,-16.74 36.99,-30.59 58.16,-41.29c8.593,-4.34 17.48,-7.913 26.66,-10.72c0.239,-0.073 0.404,-0.295 0.404,-0.545c0,-0.191 -0.095,-0.369 -0.254,-0.475c-2.18,-1.49 -4.26,-3.3 -6.37,-4.75c-9.167,-6.313 -18.557,-13.503 -28.17,-21.57c-4.71,-3.95 -8.79,-8.31 -6.23,-14.85c1.707,-4.367 5.18,-6.467 10.42,-6.3c8.6,0.27 16.53,1.4 25.18,3.92c27.34,7.973 53.657,18.54 78.95,31.7c0.323,0.168 0.694,0.217 1.05,0.14c11.707,-2.667 23.547,-4.483 35.52,-5.45c0.307,-0.02 0.46,-0.183 0.46,-0.49c0.013,-21.56 2.137,-42.853 6.37,-63.88c2.33,-11.54 6.31,-17.49 17.99,-19.24c11.6,-1.74 30.89,0.86 33.38,15.81c0.347,2.08 0.03,5.537 -0.95,10.37c-4.42,21.7 -7.54,37.29 -9.37,57.27c-0.033,0.36 0.13,0.55 0.49,0.57c11.267,0.627 18.74,1.307 22.42,2.04c4.96,0.993 9.94,1.777 14.94,2.35c0.333,0.04 0.643,-0.023 0.93,-0.19c9.607,-5.433 19.5,-10.237 29.68,-14.41c17.44,-7.153 32.84,-12.677 46.2,-16.57c7.093,-2.067 15.157,-3.393 24.19,-3.98c3.14,-0.207 5.493,-0.027 7.06,0.54c4.86,1.76 7.74,7.43 6.36,12.43c-0.433,1.573 -1.543,3.18 -3.33,4.82c-12.49,11.46 -25.46,19.58 -38.03,29.58c-0.257,0.203 -0.407,0.513 -0.407,0.84c0,0.454 0.289,0.86 0.717,1.01c43.82,15.35 80.72,42.11 110.31,78.43c12.58,15.433 22.75,31.207 30.51,47.32c17.06,35.387 25.993,72.657 26.8,111.81c0.133,6.72 0.163,13.383 0.09,19.99c-0.36,30.033 -5.587,59.097 -15.68,87.19c-0.24,0.673 -0.085,1.424 0.4,1.94c4.88,5.227 10.547,8.66 17,10.3c13.347,3.4 25.81,1.597 37.39,-5.41c0.32,-0.193 0.383,-0.453 0.19,-0.78c-1.94,-3.23 -4.79,-6.39 -6.34,-9.3c-7.08,-13.307 -9.32,-27.54 -6.72,-42.7c1.92,-11.16 10.07,-20.97 22.18,-20.14c0.319,0.025 0.622,-0.146 0.76,-0.43c4.38,-9.2 12.96,-11.65 23.06,-11.37c11.693,0.327 21.79,4.423 30.29,12.29c0.333,0.307 0.61,0.263 0.83,-0.13c0.653,-1.173 0.983,-2.45 0.99,-3.83c0.06,-7.82 2.45,-18.16 10.87,-21.08c2.96,-1.027 6.013,-1.043 9.16,-0.05c11.65,3.67 12.71,17.99 12.01,28c-0.027,0.34 0.107,0.423 0.4,0.25c7.247,-4.3 14.057,-4.443 20.43,-0.43c7.49,4.71 7.73,12.58 4.53,19.95c-7.727,17.74 -18.377,33.377 -31.95,46.91c-12.1,12.06 -26.29,19.9 -42.65,24.11c-0.747,0.193 -1.433,0.547 -2.06,1.06c-10.45,8.55 -22.43,16.74 -34.79,21.35c-27.65,10.31 -59.49,9.29 -84.22,-8.1c-0.014,-0.01 -0.028,-0.019 -0.042,-0.028c-0.269,-0.159 -0.624,-0.066 -0.786,0.208c-0.008,0.013 -0.015,0.026 -0.022,0.04c-8.04,16.04 -18.33,29.92 -29.91,43.81c-20.19,24.23 -45.27,42.7 -72.66,58.75Zm-144.22,-576.63c-3.22,-6.36 -19.22,-7.13 -23.88,-2.1c-0.219,0.239 -0.305,0.576 -0.23,0.9c1.71,7.03 15.07,7.48 20.4,6.65c2.88,-0.44 5.23,-2.44 3.71,-5.45Zm-33,100.55c-0.17,2.76 -0.84,5.2 -0.66,7.94c0.287,4.42 0.527,8.84 0.72,13.26c0.087,2.033 0.47,4.083 1.15,6.15c0.002,0.006 0.004,0.011 0.005,0.017c0.309,0.972 -0.242,2.028 -1.22,2.338c-0.005,0.002 -0.01,0.003 -0.015,0.005c-4.56,1.4 -8.523,4.033 -11.89,7.9c-6.633,6.707 -8.76,15.167 -6.38,25.38c3.007,12.893 9.887,23.413 20.64,31.56c3.113,2.267 7,2.107 11.66,-0.48c2.533,-1.407 5.16,-3.66 7.88,-6.76c9.82,-11.17 18.45,-29.31 13.21,-44.06c-1.6,-6.747 -5.477,-11.173 -11.63,-13.28c-0.871,-0.299 -1.459,-1.123 -1.459,-2.043c0,-0.442 0.136,-0.874 0.389,-1.237c0.84,-1.2 1.23,-2.19 1.35,-3.74c0.613,-8.14 0.753,-16.287 0.42,-24.44c-0.307,-7.407 -0.37,-12.96 -0.19,-16.66c1.047,-21.967 3.797,-43.757 8.25,-65.37c0.08,-0.4 -0.083,-0.62 -0.49,-0.66c-1.433,-0.153 -2.92,0.147 -4.46,0.9c-7.21,0.2 -10.45,-0.59 -17.41,-3.17l-5.49,-2.98c-0.038,-0.021 -0.079,-0.038 -0.121,-0.049c-0.306,-0.086 -0.63,0.099 -0.718,0.411c-0.011,0.042 -0.019,0.085 -0.021,0.128c-0.3,5.3 -0.797,10.607 -1.49,15.92c-3.147,24.253 -3.823,48.593 -2.03,73.02Zm43.51,4.16c-2.5,1.953 -4.873,4.073 -7.12,6.36c-1.7,1.74 -2.18,3.66 -2.23,5.94c-0.002,0.071 0.005,0.141 0.021,0.21c0.102,0.45 0.561,0.734 1.016,0.629c0.067,-0.015 0.132,-0.038 0.193,-0.069c8.44,-4.313 17.193,-8.11 26.26,-11.39c9.173,-1.707 18.24,-1.24 27.2,1.4c0.82,0.24 1.513,0.187 2.08,-0.16c21.96,-13.51 45.06,-28.71 65.99,-45.39c3.53,-2.8 8.75,-5.81 12.8,-9.52l5.04,-3.68c0.176,-0.121 0.282,-0.322 0.282,-0.536c0,-0.356 -0.294,-0.65 -0.65,-0.65c-0.048,0 -0.095,0.006 -0.142,0.016c-30.31,5.78 -60.06,17.24 -87.92,30.32c-9.58,4.5 -15.583,7.4 -18.01,8.7c-9.007,4.833 -17.277,10.773 -24.81,17.82Zm-190.09,-52.26c24.987,20.033 51.057,38.25 78.21,54.65c0.787,0.48 1.43,0.673 1.93,0.58c6.96,-1.28 11.373,-2.01 13.24,-2.19c8.193,-0.82 16.96,0.627 26.3,4.34c5.64,2.23 10.81,3.75 15.13,8.1c0.077,0.078 0.182,0.122 0.292,0.122c0.225,0 0.41,-0.185 0.41,-0.41c0,-0.014 -0.001,-0.028 -0.002,-0.042c-0.23,-2.32 -0.43,-4.3 -2.26,-6.05c-3.02,-2.9 -6.07,-5.62 -9.15,-8.16c-7.62,-7.373 -16.857,-13.683 -27.71,-18.93c-25.96,-12.533 -50.96,-22.61 -75,-30.23c-8.213,-2.607 -16.823,-4.747 -25.83,-6.42c-0.034,-0.006 -0.068,-0.009 -0.102,-0.009c-0.313,0 -0.57,0.257 -0.57,0.57c0,0.181 0.086,0.352 0.232,0.459l4.88,3.62Zm117.08,32.2c6.2,3.813 11.753,8.38 16.66,13.7c0.17,0.185 0.411,0.291 0.663,0.291c0.467,0 0.861,-0.365 0.897,-0.831c0.42,-5.667 0.21,-11.343 -0.63,-17.03c0.127,-0.893 0.07,-1.603 -0.17,-2.13c-0.14,-0.307 -0.377,-0.44 -0.71,-0.4l-21.14,2.8c-0.218,0.023 -0.385,0.209 -0.385,0.428c0,0.153 0.082,0.295 0.215,0.372l4.6,2.8Zm64.33,-2.34l-0.22,17.15c0.002,0.284 0.236,0.516 0.52,0.516c0.149,0 0.291,-0.064 0.39,-0.176c2.4,-2.827 5.053,-5.533 7.96,-8.12c2.953,-2.633 6.377,-4.87 10.27,-6.71l2.98,-1.99c1.787,-1.2 1.61,-1.9 -0.53,-2.1l-20.31,-1.92c-0.46,-0.04 -0.773,0.153 -0.94,0.58c-0.327,0.847 -0.367,1.77 -0.12,2.77Zm-214.59,462.46c13.253,10.387 27.27,19.493 42.05,27.32c17.24,9.33 35.75,16.01 54.27,22.32c8.313,2.833 20.237,5.563 35.77,8.19c35.9,6.06 71.833,6.75 107.8,2.07c12.35,-1.61 25.55,-5.1 38.21,-8.05c7.86,-1.83 16.41,-4.64 23.72,-7.54c18.033,-7.14 35.52,-15.387 52.46,-24.74c19.353,-11.627 37.123,-25.18 53.31,-40.66c4.427,-4.233 8.963,-9.113 13.61,-14.64c12.07,-14.37 21.74,-27.75 29.23,-42.44c6.71,-13.18 14.16,-28.87 18.85,-43.29c4.647,-14.28 8.003,-28.887 10.07,-43.82c4.327,-31.373 4.093,-62.66 -0.7,-93.86c-1.17,-7.58 -3.59,-15.47 -5.51,-23.2c-1.713,-6.893 -3.413,-12.603 -5.1,-17.13c-7.6,-20.387 -17.35,-39.73 -29.25,-58.03c-1.7,-2.613 -3.627,-4.997 -5.78,-7.15c-14.273,-19.667 -30.03,-36.01 -47.27,-49.03c-21.18,-15.993 -45.537,-28.29 -73.07,-36.89c-0.32,-0.1 -0.617,-0.053 -0.89,0.14l-5.28,3.62l-1.49,1.14l-21.51,13.99c-0.3,0.193 -0.45,0.467 -0.45,0.82c-0.013,0.78 0.613,1.413 1.88,1.9c16.08,6.747 27,18.1 32.76,34.06c0.993,2.76 0.903,5.69 -0.27,8.79c-4.94,7.38 -11.49,6.11 -19.53,3.52c-14.08,-4.54 -27.94,-8.01 -42.99,-9.64c-8.88,-0.96 -17.46,-2.22 -26.44,-2.22c-0.635,0.003 -1.155,0.525 -1.155,1.16c0,0.037 0.002,0.073 0.005,0.11c1.6,16.07 -8.7,34.67 -19.29,45.79c-10.32,10.84 -21.66,15.59 -34.53,5.72c-6.67,-5.12 -11.53,-11.72 -15.87,-18.98c-4.52,-7.547 -7.047,-15.83 -7.58,-24.85c-0.16,-2.667 -0.283,-5.163 -0.37,-7.49c-0.03,-0.72 -0.611,-1.305 -1.33,-1.34c-2.353,-0.113 -4.697,-0.063 -7.03,0.15c-19.52,1.74 -38.607,5.607 -57.26,11.6c-6.23,2 -14.67,3.57 -19.81,-1.19c-2.26,-3.56 -2.583,-7.393 -0.97,-11.5c3.24,-8.22 8.25,-15.47 15.03,-21.75c4.787,-4.433 10.543,-8.623 17.27,-12.57c1.11,-0.65 2.97,-0.94 4.19,-2.17c0.287,-0.287 0.253,-0.53 -0.1,-0.73c-4.4,-2.46 -8.827,-4.813 -13.28,-7.06c-2.84,-1.43 -5.24,-3.58 -8,-5.29l-8.33,-6.13c-0.267,-0.2 -0.56,-0.247 -0.88,-0.14c-38.22,13 -72.02,33.25 -99.32,63.14c-14.58,15.96 -27.177,33.357 -37.79,52.19c-5.073,8.993 -9.657,19.313 -13.75,30.96c-7.56,21.51 -12.82,42.53 -14.75,64.74c-2.67,30.7 -1.96,60.93 3.95,90.95c4.79,24.33 13.26,44.32 24.57,66.87c16.34,32.57 38.92,60.16 67.92,82.26Zm74.13,-391.45c2.46,-0.713 4.587,-1.423 6.38,-2.13c2.847,-1.12 4.95,-1.86 6.31,-2.22c15.81,-4.13 28.68,-7.57 47.28,-9.18l19.37,0.09c0.265,-0 0.513,-0.123 0.67,-0.33c3.747,-5.027 8.473,-8.867 14.18,-11.52c0.323,-0.148 0.531,-0.472 0.531,-0.828c0,-0.271 -0.121,-0.529 -0.331,-0.702c-3.093,-2.573 -6.397,-4.587 -9.91,-6.04c-7.207,-2.967 -14.683,-4.6 -22.43,-4.9c-5.207,-0.187 -10.08,0.217 -14.62,1.21c-11.253,2.46 -21.473,7.157 -30.66,14.09c-7.427,5.62 -13.017,13.107 -16.77,22.46Zm165.92,-37.01c-9.79,-0.09 -18.11,4.55 -25.37,10.35c-0.047,0.039 -0.091,0.082 -0.13,0.129c-0.338,0.405 -0.285,1.012 0.115,1.346c0.048,0.04 0.1,0.075 0.155,0.105c4.4,2.4 7.74,5.833 10.02,10.3c0.29,0.565 0.872,0.923 1.51,0.93l18.11,0.04c1.733,0.46 3.35,0.747 4.85,0.86c16.887,1.253 33.4,4.44 49.54,9.56c1.073,0.34 2.993,0.723 5.76,1.15c0.753,0.513 1.243,0.697 1.47,0.55c0.573,-0.367 0.687,-0.793 0.34,-1.28c-2.68,-3.72 -5.2,-7.207 -7.56,-10.46c-13.23,-18.21 -36.81,-26.89 -58.81,-23.58Zm-468.75,279.65c-0.05,-1.51 -0.48,-2.83 0.59,-4.11c0.2,-0.247 0.337,-0.49 0.41,-0.73c1.367,-4.733 2.937,-9.423 4.71,-14.07c0.117,-0.307 0.142,-0.644 0.07,-0.97c-1.633,-7 -3.09,-14.03 -4.37,-21.09c-0.367,-2.02 -1.803,-3.307 -4.31,-3.86c-0.254,-0.057 -0.523,-0.003 -0.74,0.15c-4.7,3.35 -4.11,21.26 -3.55,26.99c0.65,6.6 3.45,12.18 6.63,17.85c0.053,0.093 0.153,0.151 0.26,0.151c0.165,-0 0.3,-0.136 0.3,-0.3l0,-0.011Zm836.85,-15.85c0.527,2.947 1.263,6.087 2.21,9.42c0.77,2.75 0.38,5.22 0.51,8.07c0.027,0.587 0.19,0.627 0.49,0.12c3.19,-5.4 6.64,-10.92 7.86,-17.01c1.887,-9.4 1.45,-18.567 -1.31,-27.5c-0.193,-0.607 -0.603,-0.917 -1.23,-0.93c-2.28,-3.3 -5.83,0.82 -6.12,3.08c-1.193,9.413 -2.393,16.62 -3.6,21.62c-0.2,0.833 0.197,1.877 1.19,3.13Zm-826.42,18.96c-0.14,4.227 0.18,8.557 0.96,12.99c0.78,4.42 3.03,8.54 4.6,13c0.025,0.072 0.038,0.149 0.038,0.225c0,0.379 -0.312,0.69 -0.69,0.69c-0.074,-0 -0.148,-0.012 -0.218,-0.035c-5.27,-1.79 -10.3,-8.51 -15.37,-14.58c-6.97,-8.33 -12.91,-17.57 -19.03,-26.66c-3.75,-5.57 -6.93,-8.99 -13.67,-7.76c-1.171,0.215 -2.001,1.292 -1.91,2.48c0.5,6.34 4.71,14.02 8.09,19.34c5.067,7.98 10.697,15.35 16.89,22.11c7.253,8.813 15.29,15.45 24.11,19.91c7.413,3.753 16.23,6.99 26.45,9.71c0.32,0.085 0.608,0.262 0.83,0.51c1.033,1.16 2.173,2.193 3.42,3.1c1.327,0.967 2.443,2.037 3.35,3.21c2.293,2.953 4.62,4.917 6.98,5.89c2.44,1.02 4.11,2.63 5.75,3.45c4.807,2.4 8.153,3.85 10.04,4.35c4.647,1.24 9.287,2.513 13.92,3.82c2.54,0.72 5.19,0.46 7.88,0.99c2.533,0.507 4.493,0.753 5.88,0.74c4.847,-0.047 9.697,-0.137 14.55,-0.27c2.133,-0.053 4.58,-0.407 7.34,-1.06c2.44,-0.567 4.903,-1.003 7.39,-1.31c2.26,-0.28 5.99,-1.643 11.19,-4.09c2.9,-1.37 5.55,-3.74 8.63,-5.38c0.313,-0.16 0.443,-0.417 0.39,-0.77c-0.433,-2.973 -1.627,-5.773 -3.58,-8.4l-3.88,-7.94l-1.14,-2.74c-0.147,-0.353 -0.373,-0.413 -0.68,-0.18c-19.45,14.63 -46.93,15.68 -67.27,2.26c-2.27,-1.5 -3.61,-1.02 -5.67,0.38c-2.967,0.093 -5.63,-1.067 -7.99,-3.48c-0.232,-0.232 -0.249,-0.607 -0.04,-0.86c2.707,-3.32 5.713,-6.343 9.02,-9.07c2.007,-1.66 3.517,-3.243 4.53,-4.75c7.32,-10.9 10.783,-23.113 10.39,-36.64c-0.107,-3.687 -1.083,-6.927 -2.93,-9.72c-1.62,-3.52 -5.13,-7.8 -9.43,-6.75c-0.347,0.08 -0.583,0.29 -0.71,0.63l-0.89,2.46c-1.287,1.767 -1.753,3.56 -1.4,5.38c2.35,11.96 0.11,25.48 -12.5,30.68c-11.38,4.69 -24.42,-1.85 -26.83,-14.17c-1.69,-8.6 -0.54,-16.51 6.61,-22.48c5.63,-4.71 12.12,-0.45 17.98,-1.38c3.227,-0.513 5.323,-2.62 6.29,-6.32l0.97,-1.14c0.215,-0.248 0.206,-0.622 -0.02,-0.86c-6.44,-6.87 -19.05,-5.18 -26.68,-1.7c-12.29,5.6 -21.86,17.91 -21.94,32.19Zm771.11,-29.02c0.987,3.6 2.723,5.777 5.21,6.53c2.527,0.76 4.863,0.943 7.01,0.55c3.42,-0.63 6.92,-1.59 10.01,-0.44c7.77,2.89 11.19,11.9 10.75,19.6c-0.507,8.8 -4.643,14.907 -12.41,18.32c-7.06,3.11 -14.57,2.13 -20.28,-2.94c-8.57,-7.6 -9.36,-18.68 -6.76,-29.28c0.075,-0.31 0.009,-0.636 -0.18,-0.89l-3.57,-4.94c-1.52,-3.5 -5.77,-0.46 -7.19,1.33c-3.38,4.227 -5.073,9.303 -5.08,15.23c-0.353,12.153 2.73,23.33 9.25,33.53c3.34,5.21 8.66,9.69 13.25,14.33c0.758,0.766 0.806,1.998 0.11,2.82c-2.767,3.293 -5.617,4.243 -8.55,2.85c-0.987,-0.72 -1.69,-0.937 -2.11,-0.65c-7.48,5.093 -15.727,8.173 -24.74,9.24c-10.947,1.287 -21.94,0.37 -32.98,-2.75l-10.17,-7.01c-0.134,-0.092 -0.292,-0.142 -0.455,-0.142c-0.31,-0 -0.594,0.181 -0.725,0.462l-3.25,6.94l-4.11,9.91c-0.18,0.433 -0.083,0.79 0.29,1.07c6.4,4.833 13.523,8.227 21.37,10.18c9.367,2.333 18.84,3.207 28.42,2.62c2.16,-0.133 5.063,-0.51 8.71,-1.13c2.82,-0.487 5.65,-0.933 8.49,-1.34c0.36,-0.053 0.683,-0.2 0.97,-0.44c1.113,-0.94 2.42,-1.25 3.92,-0.93c0.322,0.071 0.66,0.021 0.95,-0.14c1.873,-1 3.833,-1.77 5.88,-2.31c2.28,-0.6 3.64,-1.8 5.48,-3.08c0.273,-0.193 0.573,-0.303 0.9,-0.33c3.6,-0.29 4.5,-2.8 6.84,-4.33c2.5,-1.64 4.92,-3.393 7.26,-5.26c3.76,-3.01 3.69,-5.73 9.29,-7.06c15.913,-3.773 29.693,-11.483 41.34,-23.13c0.94,-0.607 2.007,-1.58 3.2,-2.92c11.3,-12.627 20.35,-26.407 27.15,-41.34c0.553,-1.227 0.803,-2.37 0.75,-3.43c-0.02,-0.373 -0.177,-0.67 -0.47,-0.89c-4.27,-3.29 -8.54,-2.3 -12.12,1.61c-2.067,2.26 -3.563,4.313 -4.49,6.16c-8.207,16.427 -19.733,30.09 -34.58,40.99c-0.048,0.036 -0.102,0.063 -0.16,0.077c-0.239,0.061 -0.487,-0.09 -0.549,-0.335c-0.014,-0.056 -0.018,-0.115 -0.011,-0.172c0.033,-0.267 0.147,-0.55 0.34,-0.85c1.7,-2.593 2.87,-5.403 3.51,-8.43c2.88,-13.53 3.68,-26.26 -4.5,-38.69c-0.3,-0.47 -0.74,-0.74 -1.21,-0.91c-8.22,-10.62 -18.837,-15.25 -31.85,-13.89c-4.047,0.42 -6.763,2.43 -8.15,6.03Zm-734.27,34.64c9.27,-0.51 8.71,-10.25 8.04,-16.81c-0.033,-0.307 -0.203,-0.463 -0.51,-0.47c-4.48,-0.17 -7.65,1.44 -12.1,-0.52c-0.3,-0.133 -0.603,-0.14 -0.91,-0.02c-1.693,0.68 -2.793,1.8 -3.3,3.36c-2.12,6.56 1.01,14.88 8.78,14.46Zm755.07,-5.88c1.6,-4.273 0.687,-8.087 -2.74,-11.44c-0.227,-0.22 -0.493,-0.297 -0.8,-0.23c-4.093,0.913 -8.17,0.857 -12.23,-0.17c-0.32,-0.08 -0.503,0.047 -0.55,0.38c-0.64,4.667 -0.47,8.543 0.51,11.63c2.39,7.57 13.13,6.99 15.81,-0.17Z" style="fill:#003e4f;fill-rule:nonzero;"/><path d="M217.52,271.88c1.513,0.193 2.903,0.84 4.17,1.94c8.44,7.327 17.047,14.503 25.82,21.53c7.22,6.08 14.637,11.963 22.25,17.65c3.29,2.46 3.02,7.83 -0.63,9.79c-2.62,1.41 -5.42,0.02 -7.55,-1.67c-13.26,-10.507 -26.31,-21.273 -39.15,-32.3c-4.48,-3.847 -7.697,-6.777 -9.65,-8.79c-0.239,-0.245 -0.384,-0.571 -0.41,-0.92c-0.3,-3.807 1.417,-6.217 5.15,-7.23Z" style="fill:#f5f5f5;fill-rule:nonzero;"/><path d="M800.99,272.42c4.293,1.567 5.977,3.757 5.05,6.57c-0.433,1.313 -1.823,3.007 -4.17,5.08c-15.84,13.98 -30.95,26.547 -45.33,37.7c-7.07,5.48 -14.2,-3.63 -7.29,-8.77c8.22,-6.127 16.113,-12.493 23.68,-19.1c8.027,-6.533 15.933,-13.033 23.72,-19.5c1.427,-1.18 2.873,-1.84 4.34,-1.98Z" style="fill:#f5f5f5;fill-rule:nonzero;"/><path d="M829.56,339.33c-4.13,2.27 -8.83,0.35 -8.35,-4.6c0.46,-4.74 10.56,-10.14 14.49,-12.11c0.273,-0.143 0.585,-0.192 0.89,-0.14c6.03,0.92 7.17,8.08 2.32,11.2c-3.613,2.327 -6.73,4.21 -9.35,5.65Z" style="fill:#f5f5f5;fill-rule:nonzero;"/><path d="M196.03,338.555c-0.974,1.438 -2.602,2.302 -4.339,2.302c-1.047,0 -2.071,-0.314 -2.938,-0.901l-10.649,-7.21c-1.438,-0.974 -2.302,-2.602 -2.302,-4.339c0,-1.047 0.314,-2.07 0.901,-2.938l0.247,-0.364c0.974,-1.438 2.602,-2.302 4.339,-2.302c1.047,0 2.071,0.314 2.938,0.901l10.648,7.21c1.439,0.974 2.303,2.602 2.303,4.339c0,1.047 -0.314,2.07 -0.901,2.937l-0.247,0.365Z" style="fill:#fff;fill-rule:nonzero;"/><path d="M232.96,379.939c-1.518,2.448 -4.781,3.213 -7.229,1.696l-14.805,-9.18c-2.448,-1.518 -3.213,-4.781 -1.695,-7.228l0.189,-0.306c1.518,-2.448 4.781,-3.213 7.229,-1.696l14.805,9.18c2.448,1.518 3.213,4.781 1.695,7.228l-0.189,0.306Z" style="fill:#fff;fill-rule:nonzero;"/><path d="M809.363,365.586c0.477,0.806 0.729,1.726 0.729,2.663c0,1.846 -0.979,3.561 -2.568,4.501l-14.96,8.847c-2.469,1.461 -5.703,0.631 -7.164,-1.839l-0.203,-0.344c-0.477,-0.806 -0.729,-1.726 -0.729,-2.663c0,-1.846 0.979,-3.561 2.568,-4.501l14.96,-8.847c2.469,-1.461 5.703,-0.631 7.164,1.839l0.203,0.344Z" style="fill:#f5f5f5;fill-rule:nonzero;"/><path d="M107.87,414.52c27.91,9.04 56.19,16.85 84.62,24.06c6.16,1.57 4.8,12.96 -4.62,10.5c-35.547,-9.273 -63.923,-17.277 -85.13,-24.01c-1.28,-0.407 -2.247,-1.327 -2.9,-2.76c-1.44,-3.18 0.14,-6.76 3.31,-8c1.233,-0.48 2.807,-0.41 4.72,0.21Z" style="fill:#fff;fill-rule:nonzero;"/><path d="M907.95,415.17c3.11,-1.04 5.29,-1.73 8.01,0.53c3.92,3.27 0.76,8.79 -3.46,10.12c-27.16,8.593 -54.59,16.207 -82.29,22.84c-10.2,2.45 -11.18,-8.71 -3.55,-10.56c30.953,-7.487 58.05,-15.13 81.29,-22.93Z" style="fill:#f5f5f5;fill-rule:nonzero;"/><path d="M136.639,522.222c-0.01,2.995 -2.483,5.451 -5.479,5.441l-53.099,-0.186c-2.996,-0.01 -5.452,-2.483 -5.441,-5.479l0.001,-0.24c0.01,-2.995 2.483,-5.451 5.479,-5.441l53.099,0.186c2.996,0.01 5.452,2.483 5.441,5.479l-0.001,0.24Z" style="fill:#f5f5f5;fill-rule:nonzero;"/><path d="M943.99,521.925c0.016,2.99 -2.431,5.463 -5.421,5.479l-52,0.272l-0.028,0c-2.979,0 -5.434,-2.442 -5.45,-5.421l-0.001,-0.22c-0.016,-2.99 2.431,-5.463 5.421,-5.479l52,-0.272l0.028,0c2.979,0 5.434,2.442 5.45,5.421l0.001,0.22Z" style="fill:#f5f5f5;fill-rule:nonzero;"/><path d="M138.179,568.166c-0.016,3.017 -2.503,5.491 -5.52,5.491l-0.029,0l-21.66,-0.114c-3.028,-0.016 -5.507,-2.52 -5.491,-5.549l0.002,-0.46c0.016,-3.017 2.503,-5.491 5.52,-5.491l0.029,0l21.66,0.114c3.028,0.016 5.507,2.52 5.491,5.549l-0.002,0.46Z" style="fill:#f5f5f5;fill-rule:nonzero;"/><path d="M912.062,568.067l0,0.038c0,2.931 -2.401,5.349 -5.333,5.37l-21.559,0.15c-2.946,0.021 -5.387,-2.386 -5.407,-5.332l-0.005,-0.62l0,-0.038c0,-2.931 2.401,-5.349 5.333,-5.37l21.559,-0.15c2.946,-0.021 5.387,2.386 5.407,5.332l0.005,0.62Z" style="fill:#f5f5f5;fill-rule:nonzero;"/></g><g><path d="M316.745,228.367c1.585,2.378 0.934,5.639 -1.444,7.225l-0.3,0.2c-2.378,1.586 -5.639,0.934 -7.225,-1.444l-9.92,-14.875c-1.586,-2.378 -0.935,-5.639 1.443,-7.225l0.3,-0.2c2.378,-1.586 5.639,-0.934 7.225,1.444l9.921,14.875Z" style="fill:#fff;fill-rule:nonzero;"/><path d="M710.239,234.507c-0.982,1.393 -2.585,2.223 -4.29,2.223c-1.083,0 -2.141,-0.335 -3.026,-0.96l-0.311,-0.219c-2.353,-1.66 -2.923,-4.963 -1.263,-7.316l10.272,-14.562c0.982,-1.393 2.585,-2.223 4.29,-2.223c1.083,0 2.141,0.335 3.026,0.96l0.31,0.219c2.354,1.66 2.924,4.963 1.264,7.316l-10.272,14.562Z" style="fill:#f5f5f5;fill-rule:nonzero;"/><path d="M505.82,253.4c4.66,-5.03 20.66,-4.26 23.88,2.1c1.52,3.01 -0.83,5.01 -3.71,5.45c-5.33,0.83 -18.69,0.38 -20.4,-6.65c-0.075,-0.324 0.011,-0.661 0.23,-0.9Z" style="fill:#1c9b9e;fill-rule:nonzero;"/><path d="M506.57,269.6c-2.07,15.2 -4.52,30.37 -4.83,45.66c-0.34,16.407 -0.46,32.82 -0.36,49.24c0.007,1.12 -0.267,1.66 -0.82,1.62c-1.833,-3.12 -3.12,-6.477 -3.86,-10.07c-1.793,-24.427 -1.117,-48.767 2.03,-73.02c0.693,-5.313 1.19,-10.62 1.49,-15.92c0.002,-0.043 0.01,-0.086 0.021,-0.128c0.088,-0.312 0.412,-0.497 0.718,-0.411c0.042,0.011 0.083,0.028 0.121,0.049l5.49,2.98Z" style="fill:#fefef3;fill-rule:nonzero;"/><path d="M506.57,269.6c6.96,2.58 10.2,3.37 17.41,3.17c-0.53,3.71 -2.41,6.93 -3.06,10.37c-1.5,7.94 -3.22,15.86 -4.03,23.89c-1.01,10.1 -2.13,20.19 -2.81,30.32c-0.3,4.54 -1.173,8.97 -2.62,13.29c-0.5,1.5 -1.003,3.547 -1.51,6.14c-0.66,3.4 -2.003,6.55 -4.03,9.45c-0.78,1.11 -2.36,1.51 -2.23,3.55c0.02,0.413 -0.177,0.63 -0.59,0.65c-1.647,0.073 -2.493,-1.363 -2.54,-4.31c0.553,0.04 0.827,-0.5 0.82,-1.62c-0.1,-16.42 0.02,-32.833 0.36,-49.24c0.31,-15.29 2.76,-30.46 4.83,-45.66Z" style="fill:#57c7c4;fill-rule:nonzero;"/><path d="M531.8,399.3c-0.833,-0.793 -1.817,-0.783 -2.95,0.03c-0.275,0.193 -0.624,0.238 -0.93,0.12c-2.74,-1.07 -4.59,-3.85 -7.09,-4.38c-2.46,-0.53 -5.11,0.21 -7.45,0.2c-1.287,-0.007 -2.52,0.1 -3.7,0.32l2.16,-11.88c0.112,-0.597 -0.088,-1.212 -0.53,-1.63c-0.6,-0.56 -1.307,-0.647 -2.12,-0.26c-3.15,1.51 -4.61,13.34 -5.14,16.54c0.19,-6.35 -11.12,-3.02 -14.41,-2.47c-0.36,0.06 -0.62,-0.073 -0.78,-0.4c-0.333,-0.68 -0.707,-1.103 -1.12,-1.27l-2.95,-0.56c3.367,-3.867 7.33,-6.5 11.89,-7.9c0.005,-0.002 0.01,-0.003 0.015,-0.005c0.978,-0.31 1.529,-1.366 1.22,-2.338c-0.001,-0.006 -0.003,-0.011 -0.005,-0.017c-0.68,-2.067 -1.063,-4.117 -1.15,-6.15c-0.193,-4.42 -0.433,-8.84 -0.72,-13.26c-0.18,-2.74 0.49,-5.18 0.66,-7.94c0.74,3.593 2.027,6.95 3.86,10.07c0.047,2.947 0.893,4.383 2.54,4.31c0.413,-0.02 0.61,-0.237 0.59,-0.65c-0.13,-2.04 1.45,-2.44 2.23,-3.55c2.027,-2.9 3.37,-6.05 4.03,-9.45c0.507,-2.593 1.01,-4.64 1.51,-6.14c1.447,-4.32 2.32,-8.75 2.62,-13.29c0.68,-10.13 1.8,-20.22 2.81,-30.32c0.81,-8.03 2.53,-15.95 4.03,-23.89c0.65,-3.44 2.53,-6.66 3.06,-10.37c1.54,-0.753 3.027,-1.053 4.46,-0.9c0.407,0.04 0.57,0.26 0.49,0.66c-4.453,21.613 -7.203,43.403 -8.25,65.37c-0.18,3.7 -0.117,9.253 0.19,16.66c0.333,8.153 0.193,16.3 -0.42,24.44c-0.12,1.55 -0.51,2.54 -1.35,3.74c-0.253,0.363 -0.389,0.795 -0.389,1.237c0,0.92 0.588,1.744 1.459,2.043c6.153,2.107 10.03,6.533 11.63,13.28Z" style="fill:#1c9b9e;fill-rule:nonzero;"/><path d="M666.42,308.22c-5.7,1.167 -11.23,2.583 -16.59,4.25c-4.81,1.5 -11.88,3.15 -17.57,5.54c-5.753,2.42 -8.647,3.637 -8.68,3.65c-18.58,7.12 -36.98,15.68 -57.08,25.39c-6.69,3.23 -12.97,7.05 -19.39,10.83l-6.06,3.56c-0.082,0.048 -0.175,0.074 -0.27,0.074c-0.285,0 -0.521,-0.229 -0.53,-0.514l-0.04,-0.79c7.533,-7.047 15.803,-12.987 24.81,-17.82c2.427,-1.3 8.43,-4.2 18.01,-8.7c27.86,-13.08 57.61,-24.54 87.92,-30.32c0.047,-0.01 0.094,-0.016 0.142,-0.016c0.356,0 0.65,0.294 0.65,0.65c0,0.214 -0.106,0.415 -0.282,0.536l-5.04,3.68Z" style="fill:#fefef3;fill-rule:nonzero;"/><path d="M474.22,358.89c-0.047,0.933 -1.017,1.117 -2.91,0.55c-0.767,-0.227 -1.6,-0.653 -2.5,-1.28c-7.913,-5.493 -16.49,-10.32 -25.73,-14.48c-21.747,-9.787 -42.513,-18.653 -62.3,-26.6c-8.307,-3.333 -18.527,-6.377 -30.66,-9.13l-4.88,-3.62c-0.146,-0.107 -0.232,-0.278 -0.232,-0.459c0,-0.313 0.257,-0.57 0.57,-0.57c0.034,0 0.068,0.003 0.102,0.009c9.007,1.673 17.617,3.813 25.83,6.42c24.04,7.62 49.04,17.697 75,30.23c10.853,5.247 20.09,11.557 27.71,18.93Z" style="fill:#fefef3;fill-rule:nonzero;"/><path d="M350.12,307.95c12.133,2.753 22.353,5.797 30.66,9.13c19.787,7.947 40.553,16.813 62.3,26.6c9.24,4.16 17.817,8.987 25.73,14.48c0.9,0.627 1.733,1.053 2.5,1.28c1.893,0.567 2.863,0.383 2.91,-0.55c3.08,2.54 6.13,5.26 9.15,8.16c1.83,1.75 2.03,3.73 2.26,6.05c0.001,0.014 0.002,0.028 0.002,0.042c0,0.225 -0.185,0.41 -0.41,0.41c-0.11,0 -0.215,-0.044 -0.292,-0.122c-4.32,-4.35 -9.49,-5.87 -15.13,-8.1c-9.34,-3.713 -18.107,-5.16 -26.3,-4.34c-1.867,0.18 -6.28,0.91 -13.24,2.19c-0.5,0.093 -1.143,-0.1 -1.93,-0.58c-27.153,-16.4 -53.223,-34.617 -78.21,-54.65Z" style="fill:#57c7c4;fill-rule:nonzero;"/><path d="M666.42,308.22c-4.05,3.71 -9.27,6.72 -12.8,9.52c-20.93,16.68 -44.03,31.88 -65.99,45.39c-0.567,0.347 -1.26,0.4 -2.08,0.16c-8.96,-2.64 -18.027,-3.107 -27.2,-1.4l-8.57,-3.58c-0.293,-0.12 -0.6,-0.17 -0.92,-0.15c-0.607,0.033 -1.19,-0.06 -1.75,-0.28c6.42,-3.78 12.7,-7.6 19.39,-10.83c20.1,-9.71 38.5,-18.27 57.08,-25.39c0.033,-0.013 2.927,-1.23 8.68,-3.65c5.69,-2.39 12.76,-4.04 17.57,-5.54c5.36,-1.667 10.89,-3.083 16.59,-4.25Z" style="fill:#57c7c4;fill-rule:nonzero;"/><path d="M484.79,336.28l-17.59,3.87l-4.6,-2.8c-0.133,-0.077 -0.215,-0.219 -0.215,-0.372c0,-0.219 0.167,-0.405 0.385,-0.428l21.14,-2.8c0.333,-0.04 0.57,0.093 0.71,0.4c0.24,0.527 0.297,1.237 0.17,2.13Z" style="fill:#fefef3;fill-rule:nonzero;"/><path d="M550.45,340.47c-6.373,-1.927 -12.68,-2.813 -18.92,-2.66c-0.247,-1 -0.207,-1.923 0.12,-2.77c0.167,-0.427 0.48,-0.62 0.94,-0.58l20.31,1.92c2.14,0.2 2.317,0.9 0.53,2.1l-2.98,1.99Z" style="fill:#fefef3;fill-rule:nonzero;"/><path d="M484.79,336.28c0.84,5.687 1.05,11.363 0.63,17.03c-0.036,0.466 -0.43,0.831 -0.897,0.831c-0.252,-0 -0.493,-0.106 -0.663,-0.291c-4.907,-5.32 -10.46,-9.887 -16.66,-13.7l17.59,-3.87Z" style="fill:#ff3400;fill-rule:nonzero;"/><path d="M531.53,337.81c6.24,-0.153 12.547,0.733 18.92,2.66c-3.893,1.84 -7.317,4.077 -10.27,6.71c-2.907,2.587 -5.56,5.293 -7.96,8.12c-0.099,0.112 -0.241,0.176 -0.39,0.176c-0.284,0 -0.518,-0.232 -0.52,-0.516l0.22,-17.15Z" style="fill:#ff3400;fill-rule:nonzero;"/><path d="M316.94,800.27c-29,-22.1 -51.58,-49.69 -67.92,-82.26c-11.31,-22.55 -19.78,-42.54 -24.57,-66.87c-5.91,-30.02 -6.62,-60.25 -3.95,-90.95c1.93,-22.21 7.19,-43.23 14.75,-64.74c4.093,-11.647 8.677,-21.967 13.75,-30.96c10.613,-18.833 23.21,-36.23 37.79,-52.19c27.3,-29.89 61.1,-50.14 99.32,-63.14c0.32,-0.107 0.613,-0.06 0.88,0.14l8.33,6.13c-0.307,-0.027 -0.167,0.137 0.42,0.49c-0.893,0.22 -1.727,0.337 -2.5,0.35c-3.86,0.06 -8.32,2 -11.76,3.76c-6.713,2.533 -13.26,5.55 -19.64,9.05c-30.073,16.48 -54.987,38.737 -74.74,66.77c-12.46,17.69 -23.91,37.65 -31.27,58.42c-10.67,30.09 -16.95,61.46 -17.67,93.47c-0.28,12.173 -0.28,20.26 0,24.26c0.313,4.653 0.313,8.41 0,11.27c-0.04,0.393 0.02,0.7 0.18,0.92c0.2,0.28 0.503,0.447 0.91,0.5c0.265,0.035 0.464,0.273 0.46,0.55c-0.007,0.507 -0.15,0.95 -0.43,1.33c-0.18,0.24 -0.307,0.51 -0.38,0.81c-0.087,0.38 0.003,0.62 0.27,0.72c0.32,0.113 0.533,0.33 0.64,0.65c0.44,1.267 0.09,2.01 -1.05,2.23c-0.391,0.07 -0.664,0.44 -0.62,0.84c0.067,0.64 0.383,1.12 0.95,1.44c0.347,0.193 0.517,0.49 0.51,0.89l-0.01,0.7c0.52,1.64 -0.523,1.537 -3.13,-0.31c-0.073,-0.05 -0.16,-0.077 -0.249,-0.077c-0.241,0 -0.44,0.199 -0.44,0.44c0,0.029 0.003,0.058 0.009,0.087l0.16,0.8c0.08,0.387 0.32,0.59 0.72,0.61c1.993,0.12 2.987,1.033 2.98,2.74c-0.84,0.687 -0.543,1.487 0.89,2.4c0.207,0.136 0.381,0.342 0.494,0.585c0.276,0.591 0.123,1.256 -0.339,1.471c-0.188,0.088 -0.408,0.093 -0.625,0.014c-0.127,-0.047 -0.23,-0.07 -0.31,-0.07c-0.02,0 -0.039,0.001 -0.059,0.002c-0.4,0.023 -0.719,0.218 -0.706,0.431c0,0.013 0.002,0.025 0.005,0.037l0.19,0.89c0.08,0.38 0.307,0.527 0.68,0.44c1.3,-0.3 1.973,0.137 2.02,1.31c0.14,0.84 -0.8,1.217 -2.82,1.13c-0.011,-0.001 -0.022,-0.001 -0.032,-0.001c-0.253,0 -0.46,0.208 -0.46,0.46c0,0.11 0.04,0.217 0.112,0.301c0.493,0.593 1.17,0.82 2.03,0.68c0.021,-0.003 0.042,-0.006 0.064,-0.007c0.388,-0.025 0.729,0.278 0.755,0.673c0.001,0.021 0.002,0.043 0.001,0.064l-0.06,1.77c-0.02,0.447 -0.247,0.633 -0.68,0.56l-1.96,-0.32c-0.106,-0.014 -0.215,0.004 -0.311,0.052c-0.26,0.131 -0.369,0.448 -0.241,0.703c0.048,0.096 0.126,0.175 0.222,0.225c2.307,1.187 3.663,1.123 4.07,-0.19c1.033,0.48 0.967,1.233 -0.2,2.26c-0.473,0.76 -1.143,1.3 -2.01,1.62c-0.407,0.16 -0.44,0.373 -0.1,0.64l0.97,0.75c0.02,0.015 0.041,0.03 0.063,0.043c0.309,0.187 0.716,0.091 0.901,-0.214c0.013,-0.022 0.025,-0.045 0.036,-0.069c0.233,-0.513 0.337,-1.033 0.31,-1.56c0.52,0.107 0.92,0.26 1.2,0.46c0.364,0.252 0.474,0.748 0.25,1.13l-0.62,1.04c-0.148,0.251 -0.12,0.573 0.07,0.8c1.053,1.28 1.63,2.73 1.73,4.35c-0.98,0.307 -1.287,0.81 -0.92,1.51c0.327,0.613 0.723,0.84 1.19,0.68l2.11,8.87c-0.133,0.64 -0.757,1.017 -1.87,1.13c-0.211,0.018 -0.375,0.197 -0.375,0.409c0,0.078 0.023,0.155 0.065,0.221c0.447,0.713 1.117,1.003 2.01,0.87c0.076,-0.01 0.154,-0.001 0.226,0.025c0.248,0.089 0.381,0.361 0.294,0.604c-0.027,0.074 -0.071,0.139 -0.13,0.191l-1.77,1.59c-0.213,0.193 -0.22,0.397 -0.02,0.61c0.187,0.2 0.437,0.303 0.75,0.31c0.353,0.007 0.68,-0.083 0.98,-0.27c0.647,-0.407 1.203,-0.53 1.67,-0.37l0.06,1.72c-0.653,0.387 -1.403,0.71 -2.25,0.97c-0.173,0.053 -0.297,0.13 -0.37,0.23c-0.093,0.133 -0.137,0.277 -0.13,0.43c0.027,0.293 0.183,0.44 0.47,0.44l2.07,-0.02c0.413,-0.007 0.693,0.18 0.84,0.56c0.493,1.233 0.267,2.1 -0.68,2.6c-0.197,0.103 -0.321,0.309 -0.321,0.531c0,0.247 0.152,0.469 0.381,0.559l1.57,0.6c0.192,0.078 0.318,0.265 0.318,0.473c0,0.148 -0.065,0.29 -0.178,0.387l-1.11,0.94c-0.105,0.087 -0.165,0.217 -0.165,0.353c0,0.179 0.103,0.342 0.265,0.417l1.72,0.78c0.287,0.127 0.383,0.34 0.29,0.64l-0.41,1.25c-0.08,0.24 -0.03,0.45 0.15,0.63c0.32,0.32 0.833,0.53 1.54,0.63c1.926,5.993 3.001,11.017 6.501,17.358c5.771,10.456 11.523,23.429 18.999,34.212c9.507,13.72 19.877,26.68 31.11,38.88c3.893,2.533 6.31,4.443 7.25,5.73c3.107,4.213 6.903,7.613 11.39,10.2c1.233,1.94 2.967,3.273 5.2,4c0.32,0.107 0.597,0.28 0.83,0.52c3,3.213 6.33,6.02 9.99,8.42c1.507,0.993 2.963,2.223 4.37,3.69c2.607,2.707 5.587,4.957 8.94,6.75c0.473,0.253 0.817,0.533 1.03,0.84c0.44,0.653 0.42,1.15 -0.06,1.49c-14.78,-7.827 -28.797,-16.933 -42.05,-27.32Zm-81.07,-176.89c0,-0.455 -0.375,-0.83 -0.83,-0.83c-0.455,0 -0.83,0.375 -0.83,0.83c0,0.455 0.375,0.83 0.83,0.83c0.455,0 0.83,-0.375 0.83,-0.83Zm2.313,19.606c0.084,-0.448 -0.29,-0.9 -0.829,-1.002c-0.539,-0.101 -1.052,0.183 -1.137,0.63c-0.084,0.448 0.29,0.9 0.829,1.002c0.539,0.101 1.052,-0.183 1.137,-0.63Zm-1.913,-42.396c0.02,-0.267 -0.26,-0.513 -0.84,-0.74c-0.207,-0.08 -0.313,-0.01 -0.32,0.21l-0.03,0.69c0.003,0.14 0.056,0.264 0.149,0.351c0.217,0.201 0.599,0.149 0.845,-0.116c0.105,-0.113 0.175,-0.253 0.196,-0.395Zm0.48,30.33c-0.713,-0.293 -1.017,-0.073 -0.91,0.66c0.034,0.252 0.251,0.441 0.505,0.441c0.22,0 0.417,-0.142 0.485,-0.351l0.11,-0.33c0.055,-0.167 -0.028,-0.351 -0.19,-0.42Zm16.67,75.104c-0.097,0.096 -0.041,0.692 0.182,1.168c0.147,0.313 0.365,0.574 0.658,0.608c0.011,0.001 0.023,0.002 0.034,0.003c0.307,0.014 0.571,-0.222 0.586,-0.523l0,-0.64c-0.001,-0.225 -0.091,-0.442 -0.251,-0.603c-0.332,-0.335 -0.877,-0.341 -1.209,-0.013Z" style="fill:#fefef3;"/><path d="M749.95,435.62c0.533,0.527 0.26,0.913 -0.82,1.16c-0.306,0.064 -0.624,0.003 -0.88,-0.17c-2.88,-1.98 -5.23,-4.433 -7.05,-7.36c-1,-1.62 -2.043,-2.913 -3.13,-3.88c-6.01,-5.35 -9.19,-10.16 -13.65,-15.6c-1.067,-1.307 -2.87,-2.843 -5.41,-4.61c-2.653,-1.847 -5.12,-3.937 -7.4,-6.27c-1.21,-1.24 -2.85,-1.59 -4.21,-2.6c-1.66,-1.233 -2.657,-1.963 -2.99,-2.19c-2.573,-1.753 -4.943,-4.34 -7.11,-7.76c-0.023,-0.038 -0.055,-0.069 -0.095,-0.089c-0.117,-0.06 -0.265,-0.008 -0.327,0.114c-0.02,0.039 -0.029,0.082 -0.028,0.125l0.1,2.64l0,0.013c0,0.175 -0.144,0.32 -0.32,0.32c-0.068,0 -0.135,-0.022 -0.19,-0.063l-6.82,-5.14c-0.153,-0.113 -0.233,-0.263 -0.24,-0.45c-0.007,-0.213 -0.01,-0.42 -0.01,-0.62c0,-0.167 -0.077,-0.283 -0.23,-0.35l-2.6,-1.15c-0.34,-0.153 -0.55,-0.413 -0.63,-0.78c-0.38,-1.74 -1.41,-2.753 -3.09,-3.04c-0.327,-0.06 -0.6,-0.207 -0.82,-0.44c-0.893,-0.947 -1.963,-1.527 -3.21,-1.74c-1.84,-0.32 -2.74,-0.85 -3.87,-2.12c-0.207,-0.233 -0.457,-0.403 -0.75,-0.51c-2.7,-0.92 -5.193,-2.207 -7.48,-3.86c-1.513,-1.093 -3.013,-1.927 -4.5,-2.5c-3.027,-1.167 -5.94,-2.58 -8.74,-4.24c-0.753,-0.453 -2.42,-1.023 -5,-1.71c-1.527,-0.407 -3.19,-0.967 -4.99,-1.68c-2.573,-1.013 -5.213,-1.83 -7.92,-2.45c-0.147,-0.033 -1.967,-0.527 -5.46,-1.48c-1.947,-0.527 -3.947,-0.78 -6,-0.76c-0.307,0 -0.503,-0.06 -0.59,-0.18c-0.127,-0.16 -0.143,-0.407 -0.05,-0.74l5.28,-3.62c0.273,-0.193 0.57,-0.24 0.89,-0.14c27.533,8.6 51.89,20.897 73.07,36.89c17.24,13.02 32.997,29.363 47.27,49.03Z" style="fill:#fefef3;fill-rule:nonzero;"/><path d="M623.44,353.46c-0.093,0.333 -0.077,0.58 0.05,0.74c0.087,0.12 0.283,0.18 0.59,0.18c2.053,-0.02 4.053,0.233 6,0.76c3.493,0.953 5.313,1.447 5.46,1.48c2.707,0.62 5.347,1.437 7.92,2.45c1.8,0.713 3.463,1.273 4.99,1.68c2.58,0.687 4.247,1.257 5,1.71c2.8,1.66 5.713,3.073 8.74,4.24c1.487,0.573 2.987,1.407 4.5,2.5c2.287,1.653 4.78,2.94 7.48,3.86c0.293,0.107 0.543,0.277 0.75,0.51c1.13,1.27 2.03,1.8 3.87,2.12c1.247,0.213 2.317,0.793 3.21,1.74c0.22,0.233 0.493,0.38 0.82,0.44c1.68,0.287 2.71,1.3 3.09,3.04c0.08,0.367 0.29,0.627 0.63,0.78l2.6,1.15c0.153,0.067 0.23,0.183 0.23,0.35c0,0.2 0.003,0.407 0.01,0.62c0.007,0.187 0.087,0.337 0.24,0.45l6.82,5.14c0.055,0.041 0.122,0.063 0.19,0.063c0.176,0 0.32,-0.145 0.32,-0.32l0,-0.013l-0.1,-2.64c-0.001,-0.043 0.008,-0.086 0.028,-0.125c0.062,-0.122 0.21,-0.174 0.327,-0.114c0.04,0.02 0.072,0.051 0.095,0.089c2.167,3.42 4.537,6.007 7.11,7.76c0.333,0.227 1.33,0.957 2.99,2.19c1.36,1.01 3,1.36 4.21,2.6c2.28,2.333 4.747,4.423 7.4,6.27c2.54,1.767 4.343,3.303 5.41,4.61c4.46,5.44 7.64,10.25 13.65,15.6c1.087,0.967 2.13,2.26 3.13,3.88c1.82,2.927 4.17,5.38 7.05,7.36c0.256,0.173 0.574,0.234 0.88,0.17c1.08,-0.247 1.353,-0.633 0.82,-1.16c2.153,2.153 4.08,4.537 5.78,7.15c11.9,18.3 21.65,37.643 29.25,58.03c1.687,4.527 3.387,10.237 5.1,17.13c1.92,7.73 4.34,15.62 5.51,23.2c4.793,31.2 5.027,62.487 0.7,93.86c-2.067,14.933 -5.423,29.54 -10.07,43.82c-4.69,14.42 -12.14,30.11 -18.85,43.29c-7.49,14.69 -17.16,28.07 -29.23,42.44c-4.647,5.527 -9.183,10.407 -13.61,14.64c-16.187,15.48 -33.957,29.033 -53.31,40.66c-0.56,-0.973 -0.057,-1.977 1.51,-3.01c3.507,-2.307 6.827,-4.853 9.96,-7.64c2.24,-1.987 4.717,-4.08 7.43,-6.28c2.4,-1.94 4.82,-4.12 7.26,-6.54c3.107,-3.087 7.033,-6.693 11.78,-10.82c0.653,-0.573 1.8,-1.857 3.44,-3.85c0.987,-1.2 2.283,-2.47 3.89,-3.81c1.493,-1.253 3.463,-3.51 5.91,-6.77c0.893,-1.18 2.08,-2.293 3.56,-3.34c3.147,-2.24 5.72,-5.023 7.72,-8.35c0.94,-1.56 2.18,-2.95 3.3,-4.33c0.587,-0.713 1.277,-1.877 2.07,-3.49c0.64,-1.293 1.473,-2.503 2.5,-3.63c0.016,-0.013 0.026,-0.034 0.026,-0.055c0,-0.039 -0.032,-0.071 -0.071,-0.071c-0.016,0 -0.032,0.006 -0.045,0.016c-0.113,0.067 -0.217,0.11 -0.31,0.13c-0.193,0.033 -0.36,0.117 -0.5,0.25l-2.94,2.79c-0.24,0.233 -0.28,0.203 -0.12,-0.09c3.013,-5.367 6.3,-10.593 9.86,-15.68c0.573,-0.827 1.363,-2.263 2.37,-4.31c0.733,-1.5 1.663,-2.88 2.79,-4.14c1.33,-1.49 2.08,-3.28 3.06,-4.94c0.46,-0.78 1.02,-2.11 1.68,-3.99c0.36,-1.033 0.873,-1.997 1.54,-2.89c0.707,-0.94 1.2,-1.803 1.48,-2.59c0.507,-1.413 0.917,-2.343 1.23,-2.79c1.4,-1.94 2.247,-4.107 2.54,-6.5c0.12,-0.96 1.07,-2.24 2.85,-3.84c0.24,-0.22 0.403,-0.487 0.49,-0.8c0.433,-1.64 1.047,-3.203 1.84,-4.69c1.327,-2.5 2.1,-4 2.32,-4.5c1.21,-2.83 2.35,-4.99 2.76,-8.23c0.167,-1.307 0.44,-2.59 0.82,-3.85c0.853,-2.76 1.377,-4.627 1.57,-5.6c0.733,-3.76 1.423,-6.297 2.07,-7.61c1.527,-3.08 2.377,-6.317 2.55,-9.71c0.013,-0.307 0.11,-0.587 0.29,-0.84c0.98,-1.4 1.433,-2.973 1.36,-4.72c-0.027,-0.613 -0.13,-0.627 -0.31,-0.04c-0.38,1.2 -0.47,1.91 -1.19,3.06c-0.913,1.447 -1.297,3.073 -1.15,4.88c0,0.013 -0.007,0.017 -0.02,0.01c-0.013,-0.007 -0.013,-0.01 0,-0.01c-0.127,-1.647 -0.097,-2.693 0.09,-3.14c1.553,-3.707 2.437,-6.283 2.65,-7.73c0.34,-2.287 0.823,-4.547 1.45,-6.78c0.52,-1.873 0.783,-3.74 0.79,-5.6c0.013,-4.887 0.513,-9.733 1.5,-14.54c0.067,-0.307 0.19,-0.593 0.37,-0.86c0.233,-0.34 0.307,-0.7 0.22,-1.08c-0.96,-4.05 0.8,-7.83 0.12,-11.88c-0.06,-0.36 0.067,-0.627 0.38,-0.8c0.72,-0.4 1.02,-1 0.9,-1.8c-0.013,-0.08 -0.057,-0.14 -0.13,-0.18c-0.087,-0.04 -0.173,-0.077 -0.26,-0.11c-0.3,-0.12 -0.423,-0.337 -0.37,-0.65c0.173,-1.047 -0.087,-1.9 -0.78,-2.56c-0.267,-0.26 -0.343,-0.563 -0.23,-0.91c1.273,-4.033 1.793,-8.13 1.56,-12.29c-0.047,-0.753 0.087,-1.95 0.4,-3.59c0.313,-1.653 -0.097,-3.02 -1.23,-4.1l0.13,-15.57c0,-0.327 -0.123,-0.593 -0.37,-0.8c-0.527,-0.453 -0.81,-0.883 -0.85,-1.29c-0.26,-2.553 -0.32,-6.157 -0.18,-10.81c0.1,-3.49 -1.17,-6.57 -1.44,-10.12c-0.17,-2.27 -1.26,-4.24 -1.55,-6.48c-0.327,-2.513 -0.597,-4.14 -0.81,-4.88c-2.58,-8.967 -5.227,-17.92 -7.94,-26.86c-0.06,-0.207 -0.2,-0.317 -0.42,-0.33c-0.12,-0.007 -0.153,-0.067 -0.1,-0.18c-0.453,-1.433 -0.887,-2.867 -1.3,-4.3c-1.16,-4 -3.06,-7.75 -4.81,-11.5c-0.64,-1.35 -2.23,-3.58 -2.66,-5.67c-0.22,-1.04 -0.473,-1.823 -0.76,-2.35c-1.08,-1.95 -2.3,-3.28 -3.02,-5.4c-1.213,-3.587 -2.673,-7.05 -4.38,-10.39c-1.258,-2.458 -2.286,-4.477 -2.281,-4.48c0,0 0.004,0.007 0.011,0.02c-1.533,-4.74 -4.62,-9.503 -9.26,-14.29c-1.42,-1.473 -2.58,-3.053 -3.48,-4.74c-1.86,-3.487 -3.887,-6.887 -6.08,-10.2c-0.135,-0.206 -0.188,-0.452 -0.15,-0.69c0.153,-1.107 0.003,-2.143 -0.45,-3.11c-0.027,-0.053 -0.067,-0.073 -0.12,-0.06c-0.113,0.027 -0.223,0.05 -0.33,0.07c-0.14,0.033 -0.253,-0.01 -0.34,-0.13c-1.027,-1.48 -2.45,-2.367 -4.27,-2.66c-0.327,-0.053 -0.613,-0.19 -0.86,-0.41c-1.053,-0.933 -1.943,-1.987 -2.67,-3.16c-0.88,-1.427 -1.723,-2.523 -2.53,-3.29c-1.91,-1.81 -3.28,-3.67 -5.45,-5.18c-4.89,-3.4 -9.29,-7.45 -14.18,-10.76c-1.707,-1.16 -3.407,-2.33 -5.1,-3.51c-0.073,-0.053 -1.003,-0.547 -2.79,-1.48c-0.947,-0.493 -1.687,-1.21 -2.22,-2.15c-0.173,-0.3 -0.413,-0.533 -0.72,-0.7c-2.227,-1.18 -4.433,-2.4 -6.62,-3.66c-0.553,-0.313 -1.593,-1.08 -3.12,-2.3c-1.033,-0.82 -2.163,-1.473 -3.39,-1.96c-1.02,-0.4 -1.87,-0.897 -2.55,-1.49c-0.753,-0.66 -1.537,-1.29 -2.35,-1.89c-0.993,-0.733 -2.08,-1.743 -3.26,-3.03c-1.413,-1.54 -2.927,-2.617 -4.54,-3.23c-5.073,-1.92 -10.007,-4.047 -14.8,-6.38l-25.19,-10.8c-0.293,-0.127 -0.6,-0.167 -0.92,-0.12c-2.173,0.307 -3.973,0.063 -5.4,-0.73l1.49,-1.14Z" style="fill:#ee675b;fill-rule:nonzero;"/><path d="M621.95,354.6c1.427,0.793 3.227,1.037 5.4,0.73c0.32,-0.047 0.627,-0.007 0.92,0.12l25.19,10.8l-13.45,-4.49c-0.393,-0.133 -0.477,-0.023 -0.25,0.33l2.5,3.85c0.157,0.244 0.24,0.527 0.24,0.817c0,0.704 -0.493,1.319 -1.18,1.473l-3.89,0.85c-0.327,0.073 -0.657,0.093 -0.99,0.06c-2.5,-0.287 -4.81,0.24 -6.93,1.58c-0.291,0.181 -0.64,0.255 -0.99,0.21c-2.67,-0.35 -4.07,-0.28 -6.98,0.22c-1.94,0.327 -3.93,0.37 -5.97,0.13c-0.314,-0.032 -0.625,0.083 -0.84,0.31c-1.367,1.493 -2.733,1.6 -4.1,0.32c-0.093,-0.093 -0.367,-0.487 -0.82,-1.18c-0.34,-0.533 -0.783,-0.797 -1.33,-0.79c-1.5,0.027 -3.707,-0.46 -6.62,-1.46c-0.129,-0.042 -0.272,0.013 -0.34,0.13c-0.313,0.567 -0.197,1.467 0.35,2.7c-1.267,-0.487 -1.893,-1.12 -1.88,-1.9c0,-0.353 0.15,-0.627 0.45,-0.82l21.51,-13.99Z" style="fill:#dd1e03;fill-rule:nonzero;"/><path d="M395.32,355.43c2.76,1.71 5.16,3.86 8,5.29c4.453,2.247 8.88,4.6 13.28,7.06c0.353,0.2 0.387,0.443 0.1,0.73c-1.22,1.23 -3.08,1.52 -4.19,2.17c-6.727,3.947 -12.483,8.137 -17.27,12.57c-6.78,6.28 -11.79,13.53 -15.03,21.75c-1.613,4.107 -1.29,7.94 0.97,11.5c-2.747,2.82 -4.133,6.087 -4.16,9.8c-0.07,7.14 5.6,7.25 11.09,5.99c11.63,-2.65 24.24,-7.15 34.26,-9.78c13.4,-3.52 26.62,-7.76 40.32,-10.07c0.056,-0.009 0.112,-0.016 0.168,-0.021c1.018,-0.078 1.919,0.69 1.997,1.702c0.004,0.056 0.006,0.113 0.005,0.169c-0.02,1.667 0.027,3.373 0.14,5.12c0.29,4.28 1.73,8.63 2.6,12.9c1.25,6.17 3.7,11.59 5.85,17.39c1.593,4.313 2.94,7.477 4.04,9.49c3.513,6.42 8.04,11.583 13.58,15.49c4.847,3.413 10.657,5.11 17.43,5.09c8.8,-0.033 15.86,-3.15 21.18,-9.35c6.287,-7.34 10.643,-15.047 13.07,-23.12c1.64,-5.46 3.33,-10.39 3.89,-16.23c0.453,-4.813 0.94,-8.137 1.46,-9.97c0.88,-3.08 1.203,-5.987 0.97,-8.72c-0.067,-0.713 0.253,-0.997 0.96,-0.85c20.687,4.407 40.877,9.593 60.57,15.56c4.54,1.38 13.26,4.64 19.89,5.97c5.04,1.01 9.02,-1.97 8.65,-7.26c-0.293,-4.253 -1.887,-8.133 -4.78,-11.64c1.173,-3.1 1.263,-6.03 0.27,-8.79c-5.76,-15.96 -16.68,-27.313 -32.76,-34.06c-0.547,-1.233 -0.663,-2.133 -0.35,-2.7c0.068,-0.117 0.211,-0.172 0.34,-0.13c2.913,1 5.12,1.487 6.62,1.46c0.547,-0.007 0.99,0.257 1.33,0.79c0.453,0.693 0.727,1.087 0.82,1.18c1.367,1.28 2.733,1.173 4.1,-0.32c0.215,-0.227 0.526,-0.342 0.84,-0.31c2.04,0.24 4.03,0.197 5.97,-0.13c2.91,-0.5 4.31,-0.57 6.98,-0.22c0.35,0.045 0.699,-0.029 0.99,-0.21c2.12,-1.34 4.43,-1.867 6.93,-1.58c0.333,0.033 0.663,0.013 0.99,-0.06l3.89,-0.85c0.687,-0.154 1.18,-0.769 1.18,-1.473c0,-0.29 -0.083,-0.573 -0.24,-0.817l-2.5,-3.85c-0.227,-0.353 -0.143,-0.463 0.25,-0.33l13.45,4.49c4.793,2.333 9.727,4.46 14.8,6.38c1.613,0.613 3.127,1.69 4.54,3.23c1.18,1.287 2.267,2.297 3.26,3.03c0.813,0.6 1.597,1.23 2.35,1.89c0.68,0.593 1.53,1.09 2.55,1.49c1.227,0.487 2.357,1.14 3.39,1.96c1.527,1.22 2.567,1.987 3.12,2.3c2.187,1.26 4.393,2.48 6.62,3.66c0.307,0.167 0.547,0.4 0.72,0.7c0.533,0.94 1.273,1.657 2.22,2.15c1.787,0.933 2.717,1.427 2.79,1.48c1.693,1.18 3.393,2.35 5.1,3.51c4.89,3.31 9.29,7.36 14.18,10.76c2.17,1.51 3.54,3.37 5.45,5.18c0.807,0.767 1.65,1.863 2.53,3.29c0.727,1.173 1.617,2.227 2.67,3.16c0.247,0.22 0.533,0.357 0.86,0.41c1.82,0.293 3.243,1.18 4.27,2.66c0.087,0.12 0.2,0.163 0.34,0.13c0.107,-0.02 0.217,-0.043 0.33,-0.07c0.053,-0.013 0.093,0.007 0.12,0.06c0.453,0.967 0.603,2.003 0.45,3.11c-0.038,0.238 0.015,0.484 0.15,0.69c2.193,3.313 4.22,6.713 6.08,10.2c0.9,1.687 2.06,3.267 3.48,4.74c4.64,4.787 7.727,9.55 9.26,14.29c-0.007,-0.013 -0.011,-0.02 -0.011,-0.02c-0.005,0.003 1.023,2.022 2.281,4.48c1.707,3.34 3.167,6.803 4.38,10.39c0.72,2.12 1.94,3.45 3.02,5.4c0.287,0.527 0.54,1.31 0.76,2.35c0.43,2.09 2.02,4.32 2.66,5.67c1.75,3.75 3.65,7.5 4.81,11.5c0.413,1.433 0.847,2.867 1.3,4.3c-0.053,0.113 -0.02,0.173 0.1,0.18c0.22,0.013 0.36,0.123 0.42,0.33c2.713,8.94 5.36,17.893 7.94,26.86c0.213,0.74 0.483,2.367 0.81,4.88c0.29,2.24 1.38,4.21 1.55,6.48c0.27,3.55 1.54,6.63 1.44,10.12c-0.14,4.653 -0.08,8.257 0.18,10.81c0.04,0.407 0.323,0.837 0.85,1.29c0.247,0.207 0.37,0.473 0.37,0.8l-0.13,15.57c0.153,4 -0.157,7.92 -0.93,11.76c-0.34,1.693 -0.527,3.18 -0.56,4.46c-0.033,1.513 -0.107,3.03 -0.22,4.55c-0.013,0.227 -0.133,0.323 -0.36,0.29c-0.787,-0.107 -1.417,0.2 -1.89,0.92c-1.547,2.38 -2.85,5.22 -3.91,8.52c-2.36,7.38 -4.317,14.867 -5.87,22.46c-0.46,2.253 -1.093,4.453 -1.9,6.6c-0.88,2.36 -1.557,4.53 -2.03,6.51c-0.733,3.067 -1.89,7.247 -3.47,12.54c-2.033,6.82 -3.793,12.233 -5.28,16.24c-0.66,1.773 -1.783,4.093 -3.37,6.96c-1.26,2.273 -2.43,4.593 -3.51,6.96c-1.36,2.98 -2.86,5.827 -4.5,8.54c-2.52,4.16 -4.743,8.48 -6.67,12.96c-0.047,0.107 -0.127,0.16 -0.24,0.16l-0.61,0c-0.004,0 -0.008,0.001 -0.012,0.002c-0.032,0.009 -0.052,0.037 -0.045,0.064c0.002,0.005 0.004,0.01 0.007,0.014l0.42,0.64c0.093,0.14 0.1,0.283 0.02,0.43c-2.573,4.48 -4.537,7.61 -5.89,9.39c-5.76,7.58 -11.217,15.377 -16.37,23.39c-1.92,2.987 -3.983,5.633 -6.19,7.94c-4.68,4.9 -8.827,9.12 -12.44,12.66c-1.35,1.32 -3.12,2.39 -4.38,3.96c-2.687,3.327 -5.83,6.17 -9.43,8.53c-1.627,1.06 -3.867,3.017 -6.72,5.87c-1.233,1.233 -2.983,2.703 -5.25,4.41c-1.593,1.207 -3.527,2.413 -5.8,3.62c-6.667,3.553 -13.22,7.31 -19.66,11.27c-2.973,1.833 -7.18,3.753 -12.62,5.76c-1.78,0.653 -3.65,1.76 -5.61,3.32c-1.647,1.313 -3.243,2.32 -4.79,3.02c-2.14,0.967 -4.24,2.003 -6.3,3.11c-1.9,1.027 -4.03,2.003 -6.39,2.93c-2.667,1.047 -5.25,2.263 -7.75,3.65c-3.307,1.84 -5.85,3.107 -7.63,3.8c-9.773,3.8 -19.823,6.69 -30.15,8.67c-3.28,0.63 -7.23,1.98 -11.01,2.42c-0.213,0.027 -0.367,0.103 -0.46,0.23c-0.087,0.127 -0.207,0.197 -0.36,0.21l-12.65,1.41c-0.333,0.04 -0.637,0.16 -0.91,0.36c-0.96,0.727 -2.107,0.93 -3.44,0.61c-0.1,-0.027 -0.127,-0.087 -0.08,-0.18l0.14,-0.26c0.107,-0.193 0.05,-0.277 -0.17,-0.25l-4.95,0.66c-0.32,0.047 -0.6,0.183 -0.84,0.41c-0.453,0.44 -0.973,0.5 -1.56,0.18c-0.253,-0.14 -0.523,-0.187 -0.81,-0.14c-1.647,0.26 -4.327,0.437 -8.04,0.53c-1.7,0.047 -5.367,0.533 -11,1.46c-2.487,0.413 -5.26,0.583 -8.32,0.51c-3.567,-0.087 -7.133,0.027 -10.7,0.34c-2.54,0.22 -4.86,-0.38 -7.45,-0.36c-0.005,0 -0.01,-0.001 -0.015,-0.001c-0.088,0 -0.161,0.073 -0.161,0.161c0,0.083 0.064,0.152 0.146,0.16c3.993,0.967 8.02,1.197 12.08,0.69c0.058,0.003 0.104,0.052 0.104,0.11c0,0.043 -0.025,0.082 -0.064,0.1c-1.6,0.35 -2.99,0.65 -4.7,0.53c-4.04,-0.267 -8.067,-0.63 -12.08,-1.09c-6.06,-0.7 -12.67,-2.8 -19.16,-3.88c-4.45,-0.75 -8.54,-1.61 -12.04,-2.74c-5.453,-1.773 -10.963,-3.323 -16.53,-4.65c-0.95,-0.23 -1.95,0.03 -2.98,-0.13c-4.96,-0.807 -9.833,-1.983 -14.62,-3.53c-0.4,-0.127 -1.34,-0.35 -2.82,-0.67c-2.3,-0.49 -4.72,-2.21 -6.61,-2.78c-6.48,-1.933 -11.463,-3.347 -14.95,-4.24c-2.653,-0.68 -5.117,-1.613 -7.39,-2.8c-5.44,-2.83 -10.37,-5.08 -15.77,-7.37c-0.293,-0.127 -0.547,-0.31 -0.76,-0.55c-0.493,-0.547 -1.147,-1.047 -1.96,-1.5c-6.36,-3.513 -12.757,-6.303 -19.19,-8.37c-0.053,-0.013 -0.397,-0.173 -1.03,-0.48c-0.413,-0.207 -0.873,-0.243 -1.38,-0.11c-0.31,0.084 -0.639,0.06 -0.93,-0.07c-5.54,-2.36 -10.76,-5.31 -16.23,-7.82c-0.873,-0.4 -1.643,-0.593 -2.31,-0.58c-2.507,0.06 -3.46,1.43 -2.86,4.11c0.111,0.489 0.361,0.934 0.72,1.28l5.27,5.05c-4.487,-2.587 -8.283,-5.987 -11.39,-10.2c-0.94,-1.287 -3.357,-3.197 -7.25,-5.73c-11.233,-12.2 -21.603,-25.16 -31.11,-38.88c-11.093,-16 -19.593,-33.19 -25.5,-51.57c-0.28,-2.41 -0.17,-5.98 -2.03,-7.66c-0.247,-0.22 -0.357,-0.497 -0.33,-0.83c0.14,-2.027 -0.407,-3.663 -1.64,-4.91l-0.06,-1.72l-1.83,-5.32l-2.11,-8.87c-0.34,-0.693 -0.43,-1.423 -0.27,-2.19c-0.1,-1.62 -0.677,-3.07 -1.73,-4.35c-0.19,-0.227 -0.218,-0.549 -0.07,-0.8l0.62,-1.04c0.224,-0.382 0.114,-0.878 -0.25,-1.13c-0.28,-0.2 -0.68,-0.353 -1.2,-0.46c0.133,-0.227 0.077,-0.63 -0.17,-1.21c1.167,-1.027 1.233,-1.78 0.2,-2.26c0.22,-2.327 -0.01,-4.36 -0.69,-6.1c-0.047,-1.173 -0.72,-1.61 -2.02,-1.31c-0.373,0.087 -0.6,-0.06 -0.68,-0.44l-0.19,-0.89c-0.003,-0.012 -0.005,-0.024 -0.005,-0.037c-0.013,-0.213 0.306,-0.408 0.706,-0.431c0.02,-0.001 0.039,-0.002 0.059,-0.002c0.08,0 0.183,0.023 0.31,0.07c0.217,0.079 0.437,0.074 0.625,-0.014c0.462,-0.215 0.615,-0.88 0.339,-1.471c-0.113,-0.243 -0.287,-0.449 -0.494,-0.585c-1.433,-0.913 -1.73,-1.713 -0.89,-2.4c1.227,-1.32 1.21,-2.75 -0.05,-4.29l0.01,-0.7c0.007,-0.4 -0.163,-0.697 -0.51,-0.89c-0.567,-0.32 -0.883,-0.8 -0.95,-1.44c-0.044,-0.4 0.229,-0.77 0.62,-0.84c1.14,-0.22 1.49,-0.963 1.05,-2.23c-0.107,-0.32 -0.32,-0.537 -0.64,-0.65c-0.267,-0.1 -0.357,-0.34 -0.27,-0.72c0.073,-0.3 0.2,-0.57 0.38,-0.81c0.28,-0.38 0.423,-0.823 0.43,-1.33c0.004,-0.277 -0.195,-0.515 -0.46,-0.55c-0.407,-0.053 -0.71,-0.22 -0.91,-0.5c-0.16,-0.22 -0.22,-0.527 -0.18,-0.92c0.313,-2.86 0.313,-6.617 0,-11.27c-0.28,-4 -0.28,-12.087 0,-24.26c0.72,-32.01 7,-63.38 17.67,-93.47c7.36,-20.77 18.81,-40.73 31.27,-58.42c19.753,-28.033 44.667,-50.29 74.74,-66.77c6.38,-3.5 12.927,-6.517 19.64,-9.05c3,-0.33 6.93,-1 9.35,-2.88c0.713,-0.553 1.433,-0.793 2.16,-0.72c1.9,0.187 2.817,0.017 2.75,-0.51c-0.587,-0.353 -0.727,-0.517 -0.42,-0.49Zm-98.46,84.66c-4.41,7.47 -8.82,21.79 3.24,24.39c9.43,2.04 20.72,-8.8 26.56,-15.57c7.347,-8.5 14.577,-17.097 21.69,-25.79c4.16,-5.1 12.66,-15.95 11.68,-20.66c-2.86,-13.71 -16.51,-9.04 -24.33,-3.73c-16.02,10.88 -28.967,24.667 -38.84,41.36Zm42.258,23.262c2.765,2.312 8.197,0.44 12.032,-4.148c3.836,-4.587 4.717,-10.264 1.952,-12.576c-2.765,-2.312 -8.197,-0.44 -12.032,4.148c-3.836,4.587 -4.717,10.264 -1.952,12.576Zm38.052,9.588c-2.47,4.69 -1.61,12.14 4.39,12.9c1.42,0.18 3.773,-0.217 7.06,-1.19c5.74,-1.69 11.94,-3.85 17.38,-4.69c12.67,-1.96 24.18,0.32 36.33,3.81c10.44,3 15.16,-8.37 9.09,-15.7c-12.21,-14.72 -36.34,-16.2 -53.19,-10.87c-6.153,1.94 -11.747,5.11 -16.78,9.51c-1.227,1.067 -2.653,3.143 -4.28,6.23Zm259.73,-0.13c-11.74,-18.22 -37.53,-20.92 -56.65,-15.82c-5.33,1.42 -13.49,5.93 -16.61,11.18c-3.64,6.11 -2.65,14.25 4.8,15.64c1.753,0.327 4.083,0.073 6.99,-0.76c12.94,-3.71 24.58,-4.99 38.29,-1.97c2.853,0.627 7.22,2.063 13.1,4.31c8.16,3.12 14.8,-5.27 10.08,-12.58Zm-361.58,21.09c-3.36,7.86 -6.47,22.05 5.79,22.62c10.09,0.47 18.63,-14.57 21.69,-22.96c1.567,-4.3 1.687,-8.28 0.36,-11.94c-3.15,-8.72 -13.61,-6.27 -18.61,-1.32c-3.953,3.927 -7.03,8.46 -9.23,13.6Zm383.19,68.64c3.04,-5.78 7.64,-14.68 5,-20.94c-0.8,-1.887 -2,-3.1 -3.6,-3.64c-6.15,-2.09 -7.58,5.04 -8.65,9.07c-4.29,16.24 -16.55,27.14 -32.92,30.15c-14.4,2.653 -27.273,-1.5 -38.62,-12.46c-6.19,-5.98 -8.82,-12.7 -10.69,-20.96c-2.36,-10.37 -13.3,-7.72 -12.21,2.03c2.66,23.79 22.29,40.71 45.19,44.28c15.82,2.467 30.147,-1.067 42.98,-10.6c5.93,-4.41 10.11,-10.46 13.52,-16.93Zm-213.7,12.67c6.48,-6.77 17.53,-24.54 12.84,-34.13c-1.67,-3.44 -5.39,-5.02 -8.39,-2.19c-2.22,2.1 -2.67,6.31 -3.35,9.16c-0.5,2.147 -1.16,4.01 -1.98,5.59c-8.72,16.85 -24.33,26.29 -43.54,24.01c-17.25,-2.04 -32.85,-14.94 -36.29,-32.76c-0.493,-2.56 -1.09,-4.253 -1.79,-5.08c-2.27,-2.69 -7.45,-3.3 -9.59,-0.08c-3.95,5.96 0.1,14.21 2.75,19.92c7.767,16.713 20.607,26.76 38.52,30.14c11.88,2.24 23.44,1.01 34.68,-3.69c6.347,-2.653 11.727,-6.283 16.14,-10.89Zm-64.073,45.875l0.001,0c4.76,-0.525 8.227,-5.036 7.679,-9.993c-0.547,-4.957 -4.914,-8.603 -9.674,-8.077l-0.001,0c-4.76,0.525 -8.227,5.036 -7.679,9.993c0.547,4.957 4.914,8.603 9.674,8.077Zm24.949,-0.265c4.515,-0.837 7.492,-5.512 6.594,-10.355c-0.898,-4.844 -5.352,-8.141 -9.867,-7.305c-4.514,0.837 -7.491,5.512 -6.593,10.355c0.898,4.844 5.352,8.141 9.866,7.305Zm238.574,-8.86c0,-4.789 -3.941,-8.73 -8.73,-8.73c-4.789,0 -8.73,3.941 -8.73,8.73c0,4.789 3.941,8.73 8.73,8.73c4.789,0 8.73,-3.941 8.73,-8.73Zm-34.061,8.633c4.53,0.873 8.999,-2.257 9.899,-6.933c0.901,-4.675 -2.086,-9.241 -6.617,-10.113c-4.53,-0.873 -8.999,2.257 -9.899,6.933c-0.901,4.675 2.086,9.241 6.617,10.113Zm-83.139,17.237c6.89,-2.54 16.92,-9.73 17.66,-17.81c0.38,-4.18 -2.75,-8.49 -7.29,-7.44c-1.753,0.407 -3.1,1.357 -4.04,2.85c-7.51,11.91 -17.47,13.45 -30.62,12.81c-9.133,-0.447 -15.95,-4.203 -20.45,-11.27c-2.1,-3.29 -4.02,-5.7 -7.98,-4.44c-4.48,1.43 -6.56,6.99 -4.31,11.15c3.83,7.06 13.93,13.59 21.73,15.73c11.867,3.24 23.633,2.713 35.3,-1.58Z" style="fill:#ff3400;fill-rule:nonzero;"/><path d="M395.74,355.92c0.067,0.527 -0.85,0.697 -2.75,0.51c-0.727,-0.073 -1.447,0.167 -2.16,0.72c-2.42,1.88 -6.35,2.55 -9.35,2.88c3.44,-1.76 7.9,-3.7 11.76,-3.76c0.773,-0.013 1.607,-0.13 2.5,-0.35Z" style="fill:#ee675b;fill-rule:nonzero;"/><path d="M547.11,357.88c0.56,0.22 1.143,0.313 1.75,0.28c0.32,-0.02 0.627,0.03 0.92,0.15l8.57,3.58c-9.067,3.28 -17.82,7.077 -26.26,11.39c-0.061,0.031 -0.126,0.054 -0.193,0.069c-0.455,0.105 -0.914,-0.179 -1.016,-0.629c-0.016,-0.069 -0.023,-0.139 -0.021,-0.21c0.05,-2.28 0.53,-4.2 2.23,-5.94c2.247,-2.287 4.62,-4.407 7.12,-6.36l0.04,0.79c0.009,0.285 0.245,0.514 0.53,0.514c0.095,0 0.188,-0.026 0.27,-0.074l6.06,-3.56Z" style="fill:#1c9b9e;fill-rule:nonzero;"/><path d="M453.12,371.06c0.667,3.087 -1.707,4.683 -7.12,4.79c-0.74,0.02 -1.56,0.303 -2.46,0.85c-15.113,2.007 -28.077,8.223 -38.89,18.65c-3.873,4.687 -8.4,9.177 -13.58,13.47c3.753,-9.353 9.343,-16.84 16.77,-22.46c9.187,-6.933 19.407,-11.63 30.66,-14.09c4.54,-0.993 9.413,-1.397 14.62,-1.21Z" style="fill:#fefef3;fill-rule:nonzero;"/><path d="M451.04,395.29c1.38,-0.633 2.593,-1.607 3.64,-2.92c2.78,-3.48 5.36,-5.56 8.55,-8.23c0.263,-0.223 0.338,-0.599 0.18,-0.9c-0.153,-0.293 -0.38,-0.54 -0.68,-0.74l4.73,0.78c0.081,0.014 0.163,0.021 0.245,0.021c0.728,0 1.351,-0.541 1.455,-1.261c0.84,-5.96 -22.25,-5.41 -25.62,-5.34c0.9,-0.547 1.72,-0.83 2.46,-0.85c5.413,-0.107 7.787,-1.703 7.12,-4.79c7.747,0.3 15.223,1.933 22.43,4.9c3.513,1.453 6.817,3.467 9.91,6.04c0.21,0.173 0.331,0.431 0.331,0.702c0,0.356 -0.208,0.68 -0.531,0.828c-5.707,2.653 -10.433,6.493 -14.18,11.52c-0.157,0.207 -0.405,0.33 -0.67,0.33l-19.37,-0.09Z" style="fill:#1c9b9e;fill-rule:nonzero;"/><path d="M621.55,406.58c-3.347,-5.633 -7.5,-10.113 -12.46,-13.44c-2.027,-1.247 -3.99,-2.597 -5.89,-4.05c-11.87,-9.12 -24.21,-13.5 -39.51,-12.73l-6.58,-0.36c-0.34,-0.02 -0.607,-0.17 -0.8,-0.45c-0.94,-1.333 -0.713,-2.58 0.68,-3.74c22,-3.31 45.58,5.37 58.81,23.58c2.36,3.253 4.88,6.74 7.56,10.46c0.347,0.487 0.233,0.913 -0.34,1.28c-0.227,0.147 -0.717,-0.037 -1.47,-0.55Z" style="fill:#fefef3;fill-rule:nonzero;"/><path d="M556.99,371.81c-1.393,1.16 -1.62,2.407 -0.68,3.74c0.193,0.28 0.46,0.43 0.8,0.45l6.58,0.36c-1.953,0.153 -3.913,0.363 -5.88,0.63c-3.54,0.47 -6.74,2.17 -10.37,3.24c-0.2,0.059 -0.386,0.159 -0.545,0.294c-0.622,0.53 -0.696,1.481 -0.162,2.108c0.134,0.158 0.3,0.287 0.487,0.378c1.613,0.773 3.297,0.687 5.05,-0.26c1.84,4.273 4.883,8.36 9.13,12.26l-18.11,-0.04c-0.638,-0.007 -1.22,-0.365 -1.51,-0.93c-2.28,-4.467 -5.62,-7.9 -10.02,-10.3c-0.055,-0.03 -0.107,-0.065 -0.155,-0.105c-0.4,-0.334 -0.453,-0.941 -0.115,-1.346c0.039,-0.047 0.083,-0.09 0.13,-0.129c7.26,-5.8 15.58,-10.44 25.37,-10.35Z" style="fill:#1c9b9e;fill-rule:nonzero;"/><path d="M563.69,376.36c15.3,-0.77 27.64,3.61 39.51,12.73c1.9,1.453 3.863,2.803 5.89,4.05c0.193,1.52 -0.073,2.38 -0.8,2.58c-0.616,0.165 -1.211,0.107 -1.63,-0.16c-7.76,-5 -16.61,-10.56 -25.71,-12.24c-9.127,-1.68 -18.687,-1.87 -28.68,-0.57c-1.753,0.947 -3.437,1.033 -5.05,0.26c-0.187,-0.091 -0.353,-0.22 -0.487,-0.378c-0.534,-0.627 -0.46,-1.578 0.162,-2.108c0.159,-0.135 0.345,-0.235 0.545,-0.294c3.63,-1.07 6.83,-2.77 10.37,-3.24c1.967,-0.267 3.927,-0.477 5.88,-0.63Z" style="fill:#003e4f;fill-rule:nonzero;"/><path d="M443.54,376.7c3.37,-0.07 26.46,-0.62 25.62,5.34c-0.104,0.72 -0.727,1.261 -1.455,1.261c-0.082,0 -0.164,-0.007 -0.245,-0.021l-4.73,-0.78c-11.867,-2.087 -23.283,-1.13 -34.25,2.87c-7.62,2.78 -15.68,7.98 -23.02,12.64c-0.1,0.065 -0.216,0.1 -0.335,0.1c-0.335,0 -0.61,-0.275 -0.61,-0.61c0,-0.079 0.015,-0.157 0.045,-0.23c0.193,-0.473 0.223,-1.113 0.09,-1.92c10.813,-10.427 23.777,-16.643 38.89,-18.65Z" style="fill:#003e4f;fill-rule:nonzero;"/><path d="M462.73,382.5c0.3,0.2 0.527,0.447 0.68,0.74c0.158,0.301 0.083,0.677 -0.18,0.9c-3.19,2.67 -5.77,4.75 -8.55,8.23c-1.047,1.313 -2.26,2.287 -3.64,2.92c-18.6,1.61 -31.47,5.05 -47.28,9.18c-1.36,0.36 -3.463,1.1 -6.31,2.22c-1.793,0.707 -3.92,1.417 -6.38,2.13c5.18,-4.293 9.707,-8.783 13.58,-13.47c0.133,0.807 0.103,1.447 -0.09,1.92c-0.03,0.073 -0.045,0.151 -0.045,0.23c0,0.335 0.275,0.61 0.61,0.61c0.119,0 0.235,-0.035 0.335,-0.1c7.34,-4.66 15.4,-9.86 23.02,-12.64c10.967,-4 22.383,-4.957 34.25,-2.87Z" style="fill:#57c7c4;fill-rule:nonzero;"/><path d="M509.68,395.59c-0.58,10.753 -0.973,21.347 -1.18,31.78c-0.053,2.78 -0.37,5.4 -0.95,7.86c-0.119,0.486 -0.558,0.831 -1.059,0.831c-0.546,0 -1.012,-0.41 -1.081,-0.951c-1.487,-12.087 -1.94,-24.337 -1.36,-36.75c0.53,-3.2 1.99,-15.03 5.14,-16.54c0.813,-0.387 1.52,-0.3 2.12,0.26c0.442,0.418 0.642,1.033 0.53,1.63l-2.16,11.88Z" style="fill:#003e4f;fill-rule:nonzero;"/><path d="M609.09,393.14c4.96,3.327 9.113,7.807 12.46,13.44c-2.767,-0.427 -4.687,-0.81 -5.76,-1.15c-16.14,-5.12 -32.653,-8.307 -49.54,-9.56c-1.5,-0.113 -3.117,-0.4 -4.85,-0.86c-4.247,-3.9 -7.29,-7.987 -9.13,-12.26c9.993,-1.3 19.553,-1.11 28.68,0.57c9.1,1.68 17.95,7.24 25.71,12.24c0.419,0.267 1.014,0.325 1.63,0.16c0.727,-0.2 0.993,-1.06 0.8,-2.58Z" style="fill:#57c7c4;fill-rule:nonzero;"/><path d="M484.79,393.66l2.95,0.56l-0.07,0.37c-0.067,0.333 -0.253,0.57 -0.56,0.71c-1.92,0.867 -3.017,2.52 -3.29,4.96c-0.5,4.36 -0.6,8.49 -0.3,12.39c0.273,3.587 1.23,7.563 2.87,11.93c3.273,8.713 7.493,17.387 12.66,26.02c-10.753,-8.147 -17.633,-18.667 -20.64,-31.56c-2.38,-10.213 -0.253,-18.673 6.38,-25.38Z" style="fill:#fefef3;fill-rule:nonzero;"/><path d="M487.74,394.22c0.413,0.167 0.787,0.59 1.12,1.27c0.16,0.327 0.42,0.46 0.78,0.4c3.29,-0.55 14.6,-3.88 14.41,2.47c-0.58,12.413 -0.127,24.663 1.36,36.75c0.069,0.541 0.535,0.951 1.081,0.951c0.501,0 0.94,-0.345 1.059,-0.831c0.58,-2.46 0.897,-5.08 0.95,-7.86c0.207,-10.433 0.6,-21.027 1.18,-31.78c1.18,-0.22 2.413,-0.327 3.7,-0.32c2.34,0.01 4.99,-0.73 7.45,-0.2c2.5,0.53 4.35,3.31 7.09,4.38c0.306,0.118 0.655,0.073 0.93,-0.12c1.133,-0.813 2.117,-0.823 2.95,-0.03c5.24,14.75 -3.39,32.89 -13.21,44.06c-2.72,3.1 -5.347,5.353 -7.88,6.76c-4.66,2.587 -8.547,2.747 -11.66,0.48c-5.167,-8.633 -9.387,-17.307 -12.66,-26.02c-1.64,-4.367 -2.597,-8.343 -2.87,-11.93c-0.3,-3.9 -0.2,-8.03 0.3,-12.39c0.273,-2.44 1.37,-4.093 3.29,-4.96c0.307,-0.14 0.493,-0.377 0.56,-0.71l0.07,-0.37Z" style="fill:#57c7c4;fill-rule:nonzero;"/><path d="M634.36,414.16c2.893,3.507 4.487,7.387 4.78,11.64c0.37,5.29 -3.61,8.27 -8.65,7.26c-6.63,-1.33 -15.35,-4.59 -19.89,-5.97c-19.693,-5.967 -39.883,-11.153 -60.57,-15.56c-0.707,-0.147 -1.027,0.137 -0.96,0.85c0.233,2.733 -0.09,5.64 -0.97,8.72c-0.52,1.833 -1.007,5.157 -1.46,9.97c-0.56,5.84 -2.25,10.77 -3.89,16.23c-2.427,8.073 -6.783,15.78 -13.07,23.12c-5.32,6.2 -12.38,9.317 -21.18,9.35c-6.773,0.02 -12.583,-1.677 -17.43,-5.09c-5.54,-3.907 -10.067,-9.07 -13.58,-15.49c-1.1,-2.013 -2.447,-5.177 -4.04,-9.49c-2.15,-5.8 -4.6,-11.22 -5.85,-17.39c-0.87,-4.27 -2.31,-8.62 -2.6,-12.9c-0.113,-1.747 -0.16,-3.453 -0.14,-5.12c0.001,-0.056 -0.001,-0.113 -0.005,-0.169c-0.078,-1.012 -0.979,-1.78 -1.997,-1.702c-0.056,0.005 -0.112,0.012 -0.168,0.021c-13.7,2.31 -26.92,6.55 -40.32,10.07c-10.02,2.63 -22.63,7.13 -34.26,9.78c-5.49,1.26 -11.16,1.15 -11.09,-5.99c0.027,-3.713 1.413,-6.98 4.16,-9.8c5.14,4.76 13.58,3.19 19.81,1.19c18.653,-5.993 37.74,-9.86 57.26,-11.6c2.333,-0.213 4.677,-0.263 7.03,-0.15c0.719,0.035 1.3,0.62 1.33,1.34c0.087,2.327 0.21,4.823 0.37,7.49c0.533,9.02 3.06,17.303 7.58,24.85c4.34,7.26 9.2,13.86 15.87,18.98c12.87,9.87 24.21,5.12 34.53,-5.72c10.59,-11.12 20.89,-29.72 19.29,-45.79c-0.003,-0.037 -0.005,-0.073 -0.005,-0.11c0,-0.635 0.52,-1.157 1.155,-1.16c8.98,0 17.56,1.26 26.44,2.22c15.05,1.63 28.91,5.1 42.99,9.64c8.04,2.59 14.59,3.86 19.53,-3.52Z" style="fill:#dd1e03;fill-rule:nonzero;"/><path d="M787.82,578.03c1.133,1.08 1.543,2.447 1.23,4.1c-0.313,1.64 -0.447,2.837 -0.4,3.59c0.233,4.16 -0.287,8.257 -1.56,12.29c-0.113,0.347 -0.037,0.65 0.23,0.91c0.693,0.66 0.953,1.513 0.78,2.56c-0.053,0.313 0.07,0.53 0.37,0.65c0.087,0.033 0.173,0.07 0.26,0.11c0.073,0.04 0.117,0.1 0.13,0.18c0.12,0.8 -0.18,1.4 -0.9,1.8c-0.313,0.173 -0.44,0.44 -0.38,0.8c0.68,4.05 -1.08,7.83 -0.12,11.88c0.087,0.38 0.013,0.74 -0.22,1.08c-0.18,0.267 -0.303,0.553 -0.37,0.86c-0.987,4.807 -1.487,9.653 -1.5,14.54c-0.007,1.86 -0.27,3.727 -0.79,5.6c-0.627,2.233 -1.11,4.493 -1.45,6.78c-0.213,1.447 -1.097,4.023 -2.65,7.73c-0.187,0.447 -0.217,1.493 -0.09,3.14c-0.013,0 -0.013,0.003 0,0.01c0.013,0.007 0.02,0.003 0.02,-0.01c-0.147,-1.807 0.237,-3.433 1.15,-4.88c0.72,-1.15 0.81,-1.86 1.19,-3.06c0.18,-0.587 0.283,-0.573 0.31,0.04c0.073,1.747 -0.38,3.32 -1.36,4.72c-0.18,0.253 -0.277,0.533 -0.29,0.84c-0.173,3.393 -1.023,6.63 -2.55,9.71c-0.647,1.313 -1.337,3.85 -2.07,7.61c-0.193,0.973 -0.717,2.84 -1.57,5.6c-0.38,1.26 -0.653,2.543 -0.82,3.85c-0.41,3.24 -1.55,5.4 -2.76,8.23c-0.22,0.5 -0.993,2 -2.32,4.5c-0.793,1.487 -1.407,3.05 -1.84,4.69c-0.087,0.313 -0.25,0.58 -0.49,0.8c-1.78,1.6 -2.73,2.88 -2.85,3.84c-0.293,2.393 -1.14,4.56 -2.54,6.5c-0.313,0.447 -0.723,1.377 -1.23,2.79c-0.28,0.787 -0.773,1.65 -1.48,2.59c-0.667,0.893 -1.18,1.857 -1.54,2.89c-0.66,1.88 -1.22,3.21 -1.68,3.99c-0.98,1.66 -1.73,3.45 -3.06,4.94c-1.127,1.26 -2.057,2.64 -2.79,4.14c-1.007,2.047 -1.797,3.483 -2.37,4.31c-3.56,5.087 -6.847,10.313 -9.86,15.68c-0.16,0.293 -0.12,0.323 0.12,0.09l2.94,-2.79c0.14,-0.133 0.307,-0.217 0.5,-0.25c0.093,-0.02 0.197,-0.063 0.31,-0.13c0.013,-0.01 0.029,-0.016 0.045,-0.016c0.039,0 0.071,0.032 0.071,0.071c0,0.021 -0.01,0.042 -0.026,0.055c-1.027,1.127 -1.86,2.337 -2.5,3.63c-0.793,1.613 -1.483,2.777 -2.07,3.49c-1.12,1.38 -2.36,2.77 -3.3,4.33c-2,3.327 -4.573,6.11 -7.72,8.35c-1.48,1.047 -2.667,2.16 -3.56,3.34c-2.447,3.26 -4.417,5.517 -5.91,6.77c-1.607,1.34 -2.903,2.61 -3.89,3.81c-1.64,1.993 -2.787,3.277 -3.44,3.85c-4.747,4.127 -8.673,7.733 -11.78,10.82c-2.44,2.42 -4.86,4.6 -7.26,6.54c-2.713,2.2 -5.19,4.293 -7.43,6.28c-3.133,2.787 -6.453,5.333 -9.96,7.64c-1.567,1.033 -2.07,2.037 -1.51,3.01c-16.94,9.353 -34.427,17.6 -52.46,24.74c-7.31,2.9 -15.86,5.71 -23.72,7.54c-12.66,2.95 -25.86,6.44 -38.21,8.05c-35.967,4.68 -71.9,3.99 -107.8,-2.07c-15.533,-2.627 -27.457,-5.357 -35.77,-8.19c-18.52,-6.31 -37.03,-12.99 -54.27,-22.32c0.48,-0.34 0.5,-0.837 0.06,-1.49c-0.213,-0.307 -0.557,-0.587 -1.03,-0.84c-3.353,-1.793 -6.333,-4.043 -8.94,-6.75c-1.407,-1.467 -2.863,-2.697 -4.37,-3.69c-3.66,-2.4 -6.99,-5.207 -9.99,-8.42c-0.233,-0.24 -0.51,-0.413 -0.83,-0.52c-2.233,-0.727 -3.967,-2.06 -5.2,-4l-5.27,-5.05c-0.359,-0.346 -0.609,-0.791 -0.72,-1.28c-0.6,-2.68 0.353,-4.05 2.86,-4.11c0.667,-0.013 1.437,0.18 2.31,0.58c5.47,2.51 10.69,5.46 16.23,7.82c0.291,0.13 0.62,0.154 0.93,0.07c0.507,-0.133 0.967,-0.097 1.38,0.11c0.633,0.307 0.977,0.467 1.03,0.48c6.433,2.067 12.83,4.857 19.19,8.37c0.813,0.453 1.467,0.953 1.96,1.5c0.213,0.24 0.467,0.423 0.76,0.55c5.4,2.29 10.33,4.54 15.77,7.37c2.273,1.187 4.737,2.12 7.39,2.8c3.487,0.893 8.47,2.307 14.95,4.24c1.89,0.57 4.31,2.29 6.61,2.78c1.48,0.32 2.42,0.543 2.82,0.67c4.787,1.547 9.66,2.723 14.62,3.53c1.03,0.16 2.03,-0.1 2.98,0.13c5.567,1.327 11.077,2.877 16.53,4.65c3.5,1.13 7.59,1.99 12.04,2.74c6.49,1.08 13.1,3.18 19.16,3.88c4.013,0.46 8.04,0.823 12.08,1.09c1.71,0.12 3.1,-0.18 4.7,-0.53c0.039,-0.018 0.064,-0.057 0.064,-0.1c0,-0.058 -0.046,-0.107 -0.104,-0.11c-4.06,0.507 -8.087,0.277 -12.08,-0.69c-0.082,-0.008 -0.146,-0.077 -0.146,-0.16c0,-0.088 0.073,-0.161 0.161,-0.161c0.005,0 0.01,0.001 0.015,0.001c2.59,-0.02 4.91,0.58 7.45,0.36c3.567,-0.313 7.133,-0.427 10.7,-0.34c3.06,0.073 5.833,-0.097 8.32,-0.51c5.633,-0.927 9.3,-1.413 11,-1.46c3.713,-0.093 6.393,-0.27 8.04,-0.53c0.287,-0.047 0.557,0 0.81,0.14c0.587,0.32 1.107,0.26 1.56,-0.18c0.24,-0.227 0.52,-0.363 0.84,-0.41l4.95,-0.66c0.22,-0.027 0.277,0.057 0.17,0.25l-0.14,0.26c-0.047,0.093 -0.02,0.153 0.08,0.18c1.333,0.32 2.48,0.117 3.44,-0.61c0.273,-0.2 0.577,-0.32 0.91,-0.36l12.65,-1.41c0.153,-0.013 0.273,-0.083 0.36,-0.21c0.093,-0.127 0.247,-0.203 0.46,-0.23c3.78,-0.44 7.73,-1.79 11.01,-2.42c10.327,-1.98 20.377,-4.87 30.15,-8.67c1.78,-0.693 4.323,-1.96 7.63,-3.8c2.5,-1.387 5.083,-2.603 7.75,-3.65c2.36,-0.927 4.49,-1.903 6.39,-2.93c2.06,-1.107 4.16,-2.143 6.3,-3.11c1.547,-0.7 3.143,-1.707 4.79,-3.02c1.96,-1.56 3.83,-2.667 5.61,-3.32c5.44,-2.007 9.647,-3.927 12.62,-5.76c6.44,-3.96 12.993,-7.717 19.66,-11.27c2.273,-1.207 4.207,-2.413 5.8,-3.62c2.267,-1.707 4.017,-3.177 5.25,-4.41c2.853,-2.853 5.093,-4.81 6.72,-5.87c3.6,-2.36 6.743,-5.203 9.43,-8.53c1.26,-1.57 3.03,-2.64 4.38,-3.96c3.613,-3.54 7.76,-7.76 12.44,-12.66c2.207,-2.307 4.27,-4.953 6.19,-7.94c5.153,-8.013 10.61,-15.81 16.37,-23.39c1.353,-1.78 3.317,-4.91 5.89,-9.39c0.08,-0.147 0.073,-0.29 -0.02,-0.43l-0.42,-0.64c-0.003,-0.004 -0.005,-0.009 -0.007,-0.014c-0.007,-0.027 0.013,-0.055 0.045,-0.064c0.004,-0.001 0.008,-0.002 0.012,-0.002l0.61,0c0.113,0 0.193,-0.053 0.24,-0.16c1.927,-4.48 4.15,-8.8 6.67,-12.96c1.64,-2.713 3.14,-5.56 4.5,-8.54c1.08,-2.367 2.25,-4.687 3.51,-6.96c1.587,-2.867 2.71,-5.187 3.37,-6.96c1.487,-4.007 3.247,-9.42 5.28,-16.24c1.58,-5.293 2.737,-9.473 3.47,-12.54c0.473,-1.98 1.15,-4.15 2.03,-6.51c0.807,-2.147 1.44,-4.347 1.9,-6.6c1.553,-7.593 3.51,-15.08 5.87,-22.46c1.06,-3.3 2.363,-6.14 3.91,-8.52c0.473,-0.72 1.103,-1.027 1.89,-0.92c0.227,0.033 0.347,-0.063 0.36,-0.29c0.113,-1.52 0.187,-3.037 0.22,-4.55c0.033,-1.28 0.22,-2.767 0.56,-4.46c0.773,-3.84 1.083,-7.76 0.93,-11.76Zm-0.73,18.149c0.098,0.007 0.306,-1.593 0.459,-3.545c0.154,-1.952 0.199,-3.565 0.101,-3.573c-0.098,-0.007 -0.306,1.593 -0.459,3.545c-0.154,1.952 -0.199,3.565 -0.101,3.573Z" style="fill:#dd1e03;fill-rule:nonzero;"/><path d="M88.83,647.35c-1.07,1.28 -0.64,2.6 -0.59,4.11l0,0.011c0,0.164 -0.135,0.3 -0.3,0.3c-0.107,0 -0.207,-0.058 -0.26,-0.151c-3.18,-5.67 -5.98,-11.25 -6.63,-17.85c-0.56,-5.73 -1.15,-23.64 3.55,-26.99c0.217,-0.153 0.486,-0.207 0.74,-0.15c2.507,0.553 3.943,1.84 4.31,3.86c1.28,7.06 2.737,14.09 4.37,21.09c0.072,0.326 0.047,0.663 -0.07,0.97c-1.773,4.647 -3.343,9.337 -4.71,14.07c-0.073,0.24 -0.21,0.483 -0.41,0.73Z" style="fill:#ff3400;fill-rule:nonzero;"/><path d="M933.62,607.78c-1.787,4.12 -2.72,8.373 -2.8,12.76c-0.027,1.587 -0.317,3 -0.87,4.24c-1.567,3.513 -3.187,7.123 -4.86,10.83c-0.993,-1.253 -1.39,-2.297 -1.19,-3.13c1.207,-5 2.407,-12.207 3.6,-21.62c0.29,-2.26 3.84,-6.38 6.12,-3.08Z" style="fill:#fefef3;fill-rule:nonzero;"/><path d="M933.62,607.78c0.627,0.013 1.037,0.323 1.23,0.93c2.76,8.933 3.197,18.1 1.31,27.5c-1.22,6.09 -4.67,11.61 -7.86,17.01c-0.3,0.507 -0.463,0.467 -0.49,-0.12c-0.13,-2.85 0.26,-5.32 -0.51,-8.07c-0.947,-3.333 -1.683,-6.473 -2.21,-9.42c1.673,-3.707 3.293,-7.317 4.86,-10.83c0.553,-1.24 0.843,-2.653 0.87,-4.24c0.08,-4.387 1.013,-8.64 2.8,-12.76Z" style="fill:#ff3400;fill-rule:nonzero;"/><path d="M146.34,626.08c-2.293,-1.413 -4.487,-2.193 -6.58,-2.34c-3.187,-0.227 -6.517,-0.223 -9.99,0.01c-2.967,0.207 -5.617,0.893 -7.95,2.06c-11.33,5.66 -18.46,16.64 -17.49,29.61c0.033,0.473 -0.04,0.83 -0.22,1.07c-0.26,0.333 -0.62,0.473 -1.08,0.42c-0.32,-0.033 -0.537,-0.197 -0.65,-0.49c-0.387,-0.953 -1.623,-1.57 -3.71,-1.85c0.08,-14.28 9.65,-26.59 21.94,-32.19c7.63,-3.48 20.24,-5.17 26.68,1.7c0.226,0.238 0.235,0.612 0.02,0.86l-0.97,1.14Z" style="fill:#fefef3;fill-rule:nonzero;"/><path d="M909.78,633.41l-0.4,1.06c-0.011,0.029 -0.025,0.058 -0.04,0.086c-0.181,0.326 -0.594,0.448 -0.916,0.27c-0.029,-0.017 -0.057,-0.035 -0.084,-0.056c-3.18,-2.43 -5.74,-5.68 -9.03,-7.63c-5.43,-3.19 -14.61,-4.56 -21.41,-3.37c-2.587,0.447 -5.293,1.04 -8.12,1.78c1.387,-3.6 4.103,-5.61 8.15,-6.03c13.013,-1.36 23.63,3.27 31.85,13.89Z" style="fill:#fefef3;fill-rule:nonzero;"/><path d="M909.78,633.41c0.47,0.17 0.91,0.44 1.21,0.91c8.18,12.43 7.38,25.16 4.5,38.69c-0.64,3.027 -1.81,5.837 -3.51,8.43c-0.193,0.3 -0.307,0.583 -0.34,0.85c-0.007,0.057 -0.003,0.116 0.011,0.172c0.062,0.245 0.31,0.396 0.549,0.335c0.058,-0.014 0.112,-0.041 0.16,-0.077c14.847,-10.9 26.373,-24.563 34.58,-40.99c0.927,-1.847 2.423,-3.9 4.49,-6.16c3.58,-3.91 7.85,-4.9 12.12,-1.61c0.293,0.22 0.45,0.517 0.47,0.89c0.053,1.06 -0.197,2.203 -0.75,3.43c-6.8,14.933 -15.85,28.713 -27.15,41.34c-1.193,1.34 -2.26,2.313 -3.2,2.92l-4.87,3.89c-0.253,0.2 -0.54,0.337 -0.86,0.41c-0.673,0.16 -1.62,0.57 -2.84,1.23c-6.64,3.62 -15.17,7.353 -25.59,11.2c-4.9,1.81 -10.64,1.13 -14.7,4.79c-1.347,1.213 -2.667,2.453 -3.96,3.72c-1.75,1.71 -3.89,2.93 -5.9,4.39c-1.733,1.26 -3.29,2.23 -4.67,2.91c-6.333,3.12 -12.87,5.743 -19.61,7.87c-2.547,0.807 -4.853,1.233 -6.92,1.28c-5.98,0.153 -12.983,0.06 -21.01,-0.28c-7.107,-0.3 -14.937,-2.077 -23.49,-5.33c-3.48,-1.32 -7.303,-3.707 -11.47,-7.16c-0.26,-0.213 -0.373,-0.487 -0.34,-0.82l0.23,-2.4l3.25,-6.94c0.131,-0.281 0.415,-0.462 0.725,-0.462c0.163,0 0.321,0.05 0.455,0.142l10.17,7.01c7.5,4.4 16.047,6.51 25.64,6.33c1.487,0.68 3.28,0.637 5.38,-0.13c2.96,-0.04 5.6,0.01 8.5,-1.03c3.5,-1.26 7.03,-2.43 10.59,-3.51c3.32,-1.007 6.56,-3.507 9.72,-7.5c2.933,1.393 5.783,0.443 8.55,-2.85c0.696,-0.822 0.648,-2.054 -0.11,-2.82c-4.59,-4.64 -9.91,-9.12 -13.25,-14.33c-6.52,-10.2 -9.603,-21.377 -9.25,-33.53l1.16,1.39c0.104,0.125 0.259,0.197 0.421,0.197c0.233,0 0.441,-0.148 0.519,-0.367c0.947,-2.787 1.533,-5.647 1.76,-8.58c0.026,-0.301 0.133,-0.588 0.31,-0.83c2.28,-3.087 4.98,-5.877 8.1,-8.37l3.57,4.94c0.189,0.254 0.255,0.58 0.18,0.89c-2.6,10.6 -1.81,21.68 6.76,29.28c5.71,5.07 13.22,6.05 20.28,2.94c7.767,-3.413 11.903,-9.52 12.41,-18.32c0.44,-7.7 -2.98,-16.71 -10.75,-19.6c-3.09,-1.15 -6.59,-0.19 -10.01,0.44c-2.147,0.393 -4.483,0.21 -7.01,-0.55c-2.487,-0.753 -4.223,-2.93 -5.21,-6.53c2.827,-0.74 5.533,-1.333 8.12,-1.78c6.8,-1.19 15.98,0.18 21.41,3.37c3.29,1.95 5.85,5.2 9.03,7.63c0.027,0.021 0.055,0.039 0.084,0.056c0.322,0.178 0.735,0.056 0.916,-0.27c0.015,-0.028 0.029,-0.057 0.04,-0.086l0.4,-1.06Z" style="fill:#ff3400;fill-rule:nonzero;"/><path d="M146.34,626.08c-0.967,3.7 -3.063,5.807 -6.29,6.32c-5.86,0.93 -12.35,-3.33 -17.98,1.38c-7.15,5.97 -8.3,13.88 -6.61,22.48c2.41,12.32 15.45,18.86 26.83,14.17c12.61,-5.2 14.85,-18.72 12.5,-30.68c-0.353,-1.82 0.113,-3.613 1.4,-5.38c3.88,-0.24 6.59,1.16 8.76,4.16c1.173,1.64 1.93,1.473 2.27,-0.5c1.847,2.793 2.823,6.033 2.93,9.72c0.393,13.527 -3.07,25.74 -10.39,36.64c-1.013,1.507 -2.523,3.09 -4.53,4.75c-3.307,2.727 -6.313,5.75 -9.02,9.07c-0.209,0.253 -0.192,0.628 0.04,0.86c2.36,2.413 5.023,3.573 7.99,3.48c1.78,0.42 3.183,1.037 4.21,1.85c1.347,1.073 2.033,1.617 2.06,1.63c10.147,6.213 21.477,9.053 33.99,8.52c12.907,-0.547 24.407,-4.453 34.5,-11.72l3.88,7.94c0.587,1.127 0.817,2.1 0.69,2.92c-0.107,0.74 -0.723,1.333 -1.85,1.78c-3.65,1.46 -9.18,2.28 -12.17,4.64c-0.227,0.187 -0.483,0.31 -0.77,0.37c-8.193,1.873 -14.037,2.82 -17.53,2.84c-7.86,0.047 -15.72,0.147 -23.58,0.3c-2.53,0.05 -5.02,-0.68 -7.58,-1.01c-2.093,-0.273 -3.937,-0.727 -5.53,-1.36c-4.967,-1.993 -9.937,-3.987 -14.91,-5.98c-3.11,-1.25 -5.99,-3.39 -9.18,-4.89c-1.347,-0.64 -3.26,-2.44 -5.74,-5.4c-1.053,-1.253 -2.22,-2.183 -3.5,-2.79c-1.58,-0.753 -2.993,-1.347 -4.24,-1.78c-2.673,-0.92 -7.837,-2.597 -15.49,-5.03c-2.667,-0.847 -5.097,-1.79 -7.29,-2.83c-2.68,-1.28 -5.05,-2.33 -7.11,-3.15c-3.5,-1.387 -6.82,-3.127 -9.96,-5.22c-1.027,-0.687 -2.34,-1.943 -3.94,-3.77c-1.433,-1.633 -3.047,-2.98 -4.84,-4.04c-6.193,-6.76 -11.823,-14.13 -16.89,-22.11c-3.38,-5.32 -7.59,-13 -8.09,-19.34c-0.091,-1.188 0.739,-2.265 1.91,-2.48c6.74,-1.23 9.92,2.19 13.67,7.76c6.12,9.09 12.06,18.33 19.03,26.66c5.07,6.07 10.1,12.79 15.37,14.58c0.07,0.023 0.144,0.035 0.218,0.035c0.378,0 0.69,-0.311 0.69,-0.69c0,-0.076 -0.013,-0.153 -0.038,-0.225c-1.57,-4.46 -3.82,-8.58 -4.6,-13c-0.78,-4.433 -1.1,-8.763 -0.96,-12.99c2.087,0.28 3.323,0.897 3.71,1.85c0.113,0.293 0.33,0.457 0.65,0.49c0.46,0.053 0.82,-0.087 1.08,-0.42c0.18,-0.24 0.253,-0.597 0.22,-1.07c-0.97,-12.97 6.16,-23.95 17.49,-29.61c2.333,-1.167 4.983,-1.853 7.95,-2.06c3.473,-0.233 6.803,-0.237 9.99,-0.01c2.093,0.147 4.287,0.927 6.58,2.34Z" style="fill:#ff3400;"/><path d="M859.56,632.06c-3.12,2.493 -5.82,5.283 -8.1,8.37c-0.177,0.242 -0.284,0.529 -0.31,0.83c-0.227,2.933 -0.813,5.793 -1.76,8.58c-0.078,0.219 -0.286,0.367 -0.519,0.367c-0.162,-0 -0.317,-0.072 -0.421,-0.197l-1.16,-1.39c0.007,-5.927 1.7,-11.003 5.08,-15.23c1.42,-1.79 5.67,-4.83 7.19,-1.33Z" style="fill:#fefef3;fill-rule:nonzero;"/><path d="M167.22,638.03c-0.34,1.973 -1.097,2.14 -2.27,0.5c-2.17,-3 -4.88,-4.4 -8.76,-4.16l0.89,-2.46c0.127,-0.34 0.363,-0.55 0.71,-0.63c4.3,-1.05 7.81,3.23 9.43,6.75Z" style="fill:#fefef3;fill-rule:nonzero;"/><path d="M239.59,634.85c1.26,1.54 1.277,2.97 0.05,4.29c0.007,-1.707 -0.987,-2.62 -2.98,-2.74c-0.4,-0.02 -0.64,-0.223 -0.72,-0.61l-0.16,-0.8c-0.006,-0.029 -0.009,-0.058 -0.009,-0.087c0,-0.241 0.199,-0.44 0.44,-0.44c0.089,0 0.176,0.027 0.249,0.077c2.607,1.847 3.65,1.95 3.13,0.31Z" style="fill:#ee675b;fill-rule:nonzero;"/><path d="M241.88,646.65c0.68,1.74 0.91,3.773 0.69,6.1c-0.407,1.313 -1.763,1.377 -4.07,0.19c-0.096,-0.05 -0.174,-0.129 -0.222,-0.225c-0.128,-0.255 -0.019,-0.572 0.241,-0.703c0.096,-0.048 0.205,-0.066 0.311,-0.052l1.96,0.32c0.433,0.073 0.66,-0.113 0.68,-0.56l0.06,-1.77c0.001,-0.021 0,-0.043 -0.001,-0.064c-0.026,-0.395 -0.367,-0.698 -0.755,-0.673c-0.022,0.001 -0.043,0.004 -0.064,0.007c-0.86,0.14 -1.537,-0.087 -2.03,-0.68c-0.072,-0.084 -0.112,-0.191 -0.112,-0.301c0,-0.252 0.207,-0.46 0.46,-0.46c0.01,0 0.021,0 0.032,0.001c2.02,0.087 2.96,-0.29 2.82,-1.13Z" style="fill:#ee675b;fill-rule:nonzero;"/><path d="M242.37,655.01c0.247,0.58 0.303,0.983 0.17,1.21c0.027,0.527 -0.077,1.047 -0.31,1.56c-0.011,0.024 -0.023,0.047 -0.036,0.069c-0.185,0.305 -0.592,0.401 -0.901,0.214c-0.022,-0.013 -0.043,-0.028 -0.063,-0.043l-0.97,-0.75c-0.34,-0.267 -0.307,-0.48 0.1,-0.64c0.867,-0.32 1.537,-0.86 2.01,-1.62Z" style="fill:#ee675b;fill-rule:nonzero;"/><path d="M245.17,664c-0.16,0.767 -0.07,1.497 0.27,2.19c-0.467,0.16 -0.863,-0.067 -1.19,-0.68c-0.367,-0.7 -0.06,-1.203 0.92,-1.51Z" style="fill:#ee675b;fill-rule:nonzero;"/><path d="M247.55,675.06l1.83,5.32c-0.467,-0.16 -1.023,-0.037 -1.67,0.37c-0.3,0.187 -0.627,0.277 -0.98,0.27c-0.313,-0.007 -0.563,-0.11 -0.75,-0.31c-0.2,-0.213 -0.193,-0.417 0.02,-0.61l1.77,-1.59c0.059,-0.052 0.103,-0.117 0.13,-0.191c0.087,-0.243 -0.046,-0.515 -0.294,-0.604c-0.072,-0.026 -0.15,-0.035 -0.226,-0.025c-0.893,0.133 -1.563,-0.157 -2.01,-0.87c-0.042,-0.066 -0.065,-0.143 -0.065,-0.221c0,-0.212 0.164,-0.391 0.375,-0.409c1.113,-0.113 1.737,-0.49 1.87,-1.13Z" style="fill:#ee675b;fill-rule:nonzero;"/><path d="M78.36,676.37c1.793,1.06 3.407,2.407 4.84,4.04c1.6,1.827 2.913,3.083 3.94,3.77c3.14,2.093 6.46,3.833 9.96,5.22c2.06,0.82 4.43,1.87 7.11,3.15c2.193,1.04 4.623,1.983 7.29,2.83c7.653,2.433 12.817,4.11 15.49,5.03c1.247,0.433 2.66,1.027 4.24,1.78c1.28,0.607 2.447,1.537 3.5,2.79c2.48,2.96 4.393,4.76 5.74,5.4c3.19,1.5 6.07,3.64 9.18,4.89c4.973,1.993 9.943,3.987 14.91,5.98c1.593,0.633 3.437,1.087 5.53,1.36c2.56,0.33 5.05,1.06 7.58,1.01c7.86,-0.153 15.72,-0.253 23.58,-0.3c3.493,-0.02 9.337,-0.967 17.53,-2.84c0.287,-0.06 0.543,-0.183 0.77,-0.37c2.99,-2.36 8.52,-3.18 12.17,-4.64c1.127,-0.447 1.743,-1.04 1.85,-1.78c0.127,-0.82 -0.103,-1.793 -0.69,-2.92c1.953,2.627 3.147,5.427 3.58,8.4c0.053,0.353 -0.077,0.61 -0.39,0.77c-3.08,1.64 -5.73,4.01 -8.63,5.38c-5.2,2.447 -8.93,3.81 -11.19,4.09c-2.487,0.307 -4.95,0.743 -7.39,1.31c-2.76,0.653 -5.207,1.007 -7.34,1.06c-4.853,0.133 -9.703,0.223 -14.55,0.27c-1.387,0.013 -3.347,-0.233 -5.88,-0.74c-2.69,-0.53 -5.34,-0.27 -7.88,-0.99c-4.633,-1.307 -9.273,-2.58 -13.92,-3.82c-1.887,-0.5 -5.233,-1.95 -10.04,-4.35c-1.64,-0.82 -3.31,-2.43 -5.75,-3.45c-2.36,-0.973 -4.687,-2.937 -6.98,-5.89c-0.907,-1.173 -2.023,-2.243 -3.35,-3.21c-1.247,-0.907 -2.387,-1.94 -3.42,-3.1c-0.222,-0.248 -0.51,-0.425 -0.83,-0.51c-10.22,-2.72 -19.037,-5.957 -26.45,-9.71c-8.82,-4.46 -16.857,-11.097 -24.11,-19.91Z" style="fill:#dd1e03;fill-rule:nonzero;"/><path d="M249.44,682.1c1.233,1.247 1.78,2.883 1.64,4.91c-0.027,0.333 0.083,0.61 0.33,0.83c1.86,1.68 1.75,5.25 2.03,7.66c-0.707,-0.1 -1.22,-0.31 -1.54,-0.63c-0.18,-0.18 -0.23,-0.39 -0.15,-0.63l0.41,-1.25c0.093,-0.3 -0.003,-0.513 -0.29,-0.64l-1.72,-0.78c-0.162,-0.075 -0.265,-0.238 -0.265,-0.417c0,-0.136 0.06,-0.266 0.165,-0.353l1.11,-0.94c0.113,-0.097 0.178,-0.239 0.178,-0.387c0,-0.208 -0.126,-0.395 -0.318,-0.473l-1.57,-0.6c-0.229,-0.09 -0.381,-0.312 -0.381,-0.559c0,-0.222 0.124,-0.428 0.321,-0.531c0.947,-0.5 1.173,-1.367 0.68,-2.6c-0.147,-0.38 -0.427,-0.567 -0.84,-0.56l-2.07,0.02c-0.287,0 -0.443,-0.147 -0.47,-0.44c-0.007,-0.153 0.037,-0.297 0.13,-0.43c0.073,-0.1 0.197,-0.177 0.37,-0.23c0.847,-0.26 1.597,-0.583 2.25,-0.97Z" style="fill:#ee675b;fill-rule:nonzero;"/><path d="M932.92,682.54c-11.647,11.647 -25.427,19.357 -41.34,23.13c-5.6,1.33 -5.53,4.05 -9.29,7.06c-2.34,1.867 -4.76,3.62 -7.26,5.26c-2.34,1.53 -3.24,4.04 -6.84,4.33c-0.327,0.027 -0.627,0.137 -0.9,0.33c-1.84,1.28 -3.2,2.48 -5.48,3.08c-2.047,0.54 -4.007,1.31 -5.88,2.31c-0.29,0.161 -0.628,0.211 -0.95,0.14c-1.5,-0.32 -2.807,-0.01 -3.92,0.93c-0.287,0.24 -0.61,0.387 -0.97,0.44c-2.84,0.407 -5.67,0.853 -8.49,1.34c-3.647,0.62 -6.55,0.997 -8.71,1.13c-9.58,0.587 -19.053,-0.287 -28.42,-2.62c-7.847,-1.953 -14.97,-5.347 -21.37,-10.18c-0.373,-0.28 -0.47,-0.637 -0.29,-1.07l4.11,-9.91l-0.23,2.4c-0.033,0.333 0.08,0.607 0.34,0.82c4.167,3.453 7.99,5.84 11.47,7.16c8.553,3.253 16.383,5.03 23.49,5.33c8.027,0.34 15.03,0.433 21.01,0.28c2.067,-0.047 4.373,-0.473 6.92,-1.28c6.74,-2.127 13.277,-4.75 19.61,-7.87c1.38,-0.68 2.937,-1.65 4.67,-2.91c2.01,-1.46 4.15,-2.68 5.9,-4.39c1.293,-1.267 2.613,-2.507 3.96,-3.72c4.06,-3.66 9.8,-2.98 14.7,-4.79c10.42,-3.847 18.95,-7.58 25.59,-11.2c1.22,-0.66 2.167,-1.07 2.84,-1.23c0.32,-0.073 0.607,-0.21 0.86,-0.41l4.87,-3.89Z" style="fill:#dd1e03;fill-rule:nonzero;"/><path d="M229,702.83c-10.093,7.267 -21.593,11.173 -34.5,11.72c-12.513,0.533 -23.843,-2.307 -33.99,-8.52c-0.027,-0.013 -0.713,-0.557 -2.06,-1.63c-1.027,-0.813 -2.43,-1.43 -4.21,-1.85c2.06,-1.4 3.4,-1.88 5.67,-0.38c20.34,13.42 47.82,12.37 67.27,-2.26c0.307,-0.233 0.533,-0.173 0.68,0.18l1.14,2.74Z" style="fill:#fefef3;fill-rule:nonzero;"/><path d="M861.35,702.15c-3.16,3.993 -6.4,6.493 -9.72,7.5c-3.56,1.08 -7.09,2.25 -10.59,3.51c-2.9,1.04 -5.54,0.99 -8.5,1.03l-5.38,0.13c-9.593,0.18 -18.14,-1.93 -25.64,-6.33c11.04,3.12 22.033,4.037 32.98,2.75c9.013,-1.067 17.26,-4.147 24.74,-9.24c0.42,-0.287 1.123,-0.07 2.11,0.65Z" style="fill:#fefef3;fill-rule:nonzero;"/><path d="M832.54,714.19c-2.1,0.767 -3.893,0.81 -5.38,0.13l5.38,-0.13Z" style="fill:#ee675b;fill-rule:nonzero;"/></g><g><path d="M300.1,464.48c-12.06,-2.6 -7.65,-16.92 -3.24,-24.39c9.873,-16.693 22.82,-30.48 38.84,-41.36c7.82,-5.31 21.47,-9.98 24.33,3.73c0.98,4.71 -7.52,15.56 -11.68,20.66c-7.113,8.693 -14.343,17.29 -21.69,25.79c-5.84,6.77 -17.13,17.61 -26.56,15.57Z" style="fill:#fefef3;fill-rule:nonzero;"/><path d="M339.118,463.352c-2.765,-2.312 -1.884,-7.989 1.952,-12.576c3.835,-4.588 9.267,-6.46 12.032,-4.148c2.765,2.312 1.884,7.989 -1.952,12.576c-3.835,4.588 -9.267,6.46 -12.032,4.148Z" style="fill:#fefef3;fill-rule:nonzero;"/><path d="M377.17,472.94c1.627,-3.087 3.053,-5.163 4.28,-6.23c5.033,-4.4 10.627,-7.57 16.78,-9.51c16.85,-5.33 40.98,-3.85 53.19,10.87c6.07,7.33 1.35,18.7 -9.09,15.7c-12.15,-3.49 -23.66,-5.77 -36.33,-3.81c-5.44,0.84 -11.64,3 -17.38,4.69c-3.287,0.973 -5.64,1.37 -7.06,1.19c-6,-0.76 -6.86,-8.21 -4.39,-12.9Z" style="fill:#003e4f;fill-rule:nonzero;"/><path d="M580.25,456.99c19.12,-5.1 44.91,-2.4 56.65,15.82c4.72,7.31 -1.92,15.7 -10.08,12.58c-5.88,-2.247 -10.247,-3.683 -13.1,-4.31c-13.71,-3.02 -25.35,-1.74 -38.29,1.97c-2.907,0.833 -5.237,1.087 -6.99,0.76c-7.45,-1.39 -8.44,-9.53 -4.8,-15.64c3.12,-5.25 11.28,-9.76 16.61,-11.18Z" style="fill:#003e4f;fill-rule:nonzero;"/><path d="M275.32,493.9c2.2,-5.14 5.277,-9.673 9.23,-13.6c5,-4.95 15.46,-7.4 18.61,1.32c1.327,3.66 1.207,7.64 -0.36,11.94c-3.06,8.39 -11.6,23.43 -21.69,22.96c-12.26,-0.57 -9.15,-14.76 -5.79,-22.62Z" style="fill:#fefef3;fill-rule:nonzero;"/><path d="M658.51,562.54c-3.41,6.47 -7.59,12.52 -13.52,16.93c-12.833,9.533 -27.16,13.067 -42.98,10.6c-22.9,-3.57 -42.53,-20.49 -45.19,-44.28c-1.09,-9.75 9.85,-12.4 12.21,-2.03c1.87,8.26 4.5,14.98 10.69,20.96c11.347,10.96 24.22,15.113 38.62,12.46c16.37,-3.01 28.63,-13.91 32.92,-30.15c1.07,-4.03 2.5,-11.16 8.65,-9.07c1.6,0.54 2.8,1.753 3.6,3.64c2.64,6.26 -1.96,15.16 -5,20.94Z" style="fill:#003e4f;fill-rule:nonzero;"/><path d="M457.65,541.08c4.69,9.59 -6.36,27.36 -12.84,34.13c-4.413,4.607 -9.793,8.237 -16.14,10.89c-11.24,4.7 -22.8,5.93 -34.68,3.69c-17.913,-3.38 -30.753,-13.427 -38.52,-30.14c-2.65,-5.71 -6.7,-13.96 -2.75,-19.92c2.14,-3.22 7.32,-2.61 9.59,0.08c0.7,0.827 1.297,2.52 1.79,5.08c3.44,17.82 19.04,30.72 36.29,32.76c19.21,2.28 34.82,-7.16 43.54,-24.01c0.82,-1.58 1.48,-3.443 1.98,-5.59c0.68,-2.85 1.13,-7.06 3.35,-9.16c3,-2.83 6.72,-1.25 8.39,2.19Z" style="fill:#003e4f;fill-rule:nonzero;"/><path d="M787.09,596.179c-0.098,-0.008 -0.053,-1.621 0.101,-3.573c0.153,-1.952 0.361,-3.552 0.459,-3.545c0.098,0.008 0.053,1.621 -0.101,3.573c-0.153,1.952 -0.361,3.552 -0.459,3.545Z" style="fill:#ee675b;fill-rule:nonzero;"/><path d="M236.27,600.59c-0.021,0.142 -0.091,0.282 -0.196,0.395c-0.246,0.265 -0.628,0.317 -0.845,0.116c-0.093,-0.087 -0.146,-0.211 -0.149,-0.351l0.03,-0.69c0.007,-0.22 0.113,-0.29 0.32,-0.21c0.58,0.227 0.86,0.473 0.84,0.74Z" style="fill:#ee675b;fill-rule:nonzero;"/><path d="M380.738,621.085l-0.001,0c-4.76,0.526 -9.127,-3.12 -9.674,-8.077c-0.548,-4.957 2.919,-9.468 7.679,-9.993l0.001,0c4.76,-0.526 9.127,3.12 9.674,8.077c0.548,4.957 -2.919,9.468 -7.679,9.993Z" style="fill:#003e4f;fill-rule:nonzero;"/><path d="M405.687,620.82c-4.515,0.836 -8.969,-2.461 -9.867,-7.305c-0.898,-4.843 2.079,-9.518 6.594,-10.355c4.514,-0.836 8.968,2.461 9.866,7.305c0.898,4.843 -2.079,9.518 -6.593,10.355Z" style="fill:#003e4f;fill-rule:nonzero;"/><path d="M644.26,611.96c0,4.789 -3.941,8.73 -8.73,8.73c-4.789,0 -8.73,-3.941 -8.73,-8.73c0,-4.789 3.941,-8.73 8.73,-8.73c4.789,0 8.73,3.941 8.73,8.73Z" style="fill:#003e4f;fill-rule:nonzero;"/><path d="M610.199,620.593c-4.531,-0.872 -7.518,-5.438 -6.617,-10.113c0.9,-4.676 5.369,-7.806 9.899,-6.933c4.531,0.872 7.518,5.438 6.617,10.113c-0.9,4.676 -5.369,7.806 -9.899,6.933Z" style="fill:#003e4f;fill-rule:nonzero;"/><path d="M527.06,637.83c-11.667,4.293 -23.433,4.82 -35.3,1.58c-7.8,-2.14 -17.9,-8.67 -21.73,-15.73c-2.25,-4.16 -0.17,-9.72 4.31,-11.15c3.96,-1.26 5.88,1.15 7.98,4.44c4.5,7.067 11.317,10.823 20.45,11.27c13.15,0.64 23.11,-0.9 30.62,-12.81c0.94,-1.493 2.287,-2.443 4.04,-2.85c4.54,-1.05 7.67,3.26 7.29,7.44c-0.74,8.08 -10.77,15.27 -17.66,17.81Z" style="fill:#003e4f;fill-rule:nonzero;"/><path d="M235.87,623.38c0,0.455 -0.375,0.83 -0.83,0.83c-0.455,0 -0.83,-0.375 -0.83,-0.83c0,-0.455 0.375,-0.83 0.83,-0.83c0.455,0 0.83,0.375 0.83,0.83Z" style="fill:#ee675b;fill-rule:nonzero;"/><path d="M236.75,630.92c0.162,0.069 0.245,0.253 0.19,0.42l-0.11,0.33c-0.068,0.209 -0.265,0.351 -0.485,0.351c-0.254,0 -0.471,-0.189 -0.505,-0.441c-0.107,-0.733 0.197,-0.953 0.91,-0.66Z" style="fill:#ee675b;fill-rule:nonzero;"/><path d="M238.183,642.986c-0.085,0.447 -0.598,0.731 -1.137,0.63c-0.539,-0.102 -0.913,-0.554 -0.829,-1.002c0.085,-0.447 0.598,-0.731 1.137,-0.63c0.539,0.102 0.913,0.554 0.829,1.002Z" style="fill:#ee675b;fill-rule:nonzero;"/><path d="M242.319,548.602c-0,0 -15.463,103.351 25.971,176.476c41.433,73.126 -0.29,11.922 -0.29,11.922l-15.561,-25.324l-17.835,-48.436l-4.604,-70.24l-0,-34l12.319,-10.398Z" style="fill:#fefef3;"/></g></svg>