<?xml version="1.0" encoding="UTF-8" standalone="no"?><!DOCTYPE svg PUBLIC "-//W3C//DTD SVG 1.1//EN" "http://www.w3.org/Graphics/SVG/1.1/DTD/svg11.dtd"><svg width="100%" height="100%" viewBox="0 0 48 48" version="1.1" xmlns="http://www.w3.org/2000/svg" xmlns:xlink="http://www.w3.org/1999/xlink" xml:space="preserve" xmlns:serif="http://www.serif.com/" style="fill-rule:evenodd;clip-rule:evenodd;stroke-linejoin:round;stroke-miterlimit:2;"><path d="M24.003,9.748l-0,28.504c-0,0 -0,0 -0,0.001c-0,0.711 -0.585,1.295 -1.296,1.295c-0.323,0 -0.634,-0.12 -0.872,-0.337l-9.13,-8.301l-4.682,0c-1.658,0 -3.023,-1.365 -3.023,-3.023l-0,-7.774c-0,-1.669 1.354,-3.023 3.023,-3.023l4.682,-0l9.13,-8.301c0.238,-0.217 0.549,-0.337 0.872,-0.337c0.711,-0 1.296,0.584 1.296,1.295c-0,0.001 -0,0.001 -0,0.001Zm-9.925,9.596c-0.238,0.218 -0.55,0.338 -0.872,0.337l-5.183,0c-0.237,0 -0.432,0.195 -0.432,0.432l0,7.774c0,0.238 0.194,0.432 0.432,0.432l5.183,-0c0.323,-0 0.634,0.119 0.872,0.337l7.333,6.668l0,-22.648l-7.333,6.668Zm17.318,-1.874c-0.245,-0.263 -0.588,-0.412 -0.948,-0.412c-0.71,-0 -1.295,0.585 -1.295,1.295c-0,0.36 0.149,0.703 0.412,0.948l4.699,4.699l-4.699,4.699c-0.263,0.245 -0.412,0.588 -0.412,0.948c-0,0.71 0.585,1.295 1.295,1.295c0.36,0 0.703,-0.149 0.948,-0.412l4.699,-4.699l4.699,4.699c0.245,0.263 0.588,0.412 0.948,0.412c0.711,0 1.295,-0.585 1.295,-1.295c0,-0.36 -0.149,-0.703 -0.412,-0.948l-4.699,-4.699l4.699,-4.699c0.223,-0.24 0.348,-0.555 0.348,-0.883c-0,-0.711 -0.585,-1.296 -1.296,-1.296c-0.328,0 -0.643,0.125 -0.883,0.348l-4.699,4.699l-4.699,-4.699Z" style="fill:#3a3a3a;fill-rule:nonzero;"/></svg>