<?xml version="1.0" encoding="UTF-8" standalone="no"?><!DOCTYPE svg PUBLIC "-//W3C//DTD SVG 1.1//EN" "http://www.w3.org/Graphics/SVG/1.1/DTD/svg11.dtd"><svg width="100%" height="100%" viewBox="0 0 48 48" version="1.1" xmlns="http://www.w3.org/2000/svg" xmlns:xlink="http://www.w3.org/1999/xlink" xml:space="preserve" xmlns:serif="http://www.serif.com/" style="fill-rule:evenodd;clip-rule:evenodd;stroke-linejoin:round;stroke-miterlimit:2;"><path d="M6.923,31.064c-0.785,0 -1.423,-0.638 -1.423,-1.423c0,-0.785 0.638,-1.423 1.423,-1.423c1.55,-0 2.929,-0.79 4.045,-1.689c1.839,-1.481 2.99,-3.331 2.99,-3.331c0.26,-0.418 0.717,-0.672 1.209,-0.672c0.493,-0 0.95,0.254 1.21,0.672c-0,0 1.151,1.85 2.99,3.331c1.116,0.899 2.495,1.689 4.045,1.689c1.605,-0 3.193,-0.82 4.542,-1.752c2.205,-1.523 3.782,-3.425 3.782,-3.425c0.271,-0.326 0.673,-0.515 1.097,-0.515c0.424,-0 0.826,0.189 1.096,0.515c-0,0 1.596,1.928 3.59,3.471c1.148,0.887 2.411,1.706 3.558,1.706c0.785,-0 1.423,0.638 1.423,1.423c-0,0.785 -0.638,1.423 -1.423,1.423c-1.68,0 -3.619,-1.002 -5.299,-2.301c-1.173,-0.907 -2.223,-1.932 -2.959,-2.705c-0.776,0.783 -1.912,1.828 -3.248,2.75c-1.817,1.255 -3.997,2.256 -6.159,2.256c-2.219,0 -4.233,-1.032 -5.83,-2.318c-0.984,-0.793 -1.804,-1.673 -2.415,-2.409c-0.61,0.736 -1.43,1.616 -2.414,2.409c-1.597,1.286 -3.611,2.318 -5.83,2.318Zm0,9.487c-0.785,0 -1.423,-0.637 -1.423,-1.423c0,-0.785 0.638,-1.423 1.423,-1.423c1.55,0 2.929,-0.79 4.045,-1.689c1.839,-1.481 2.99,-3.331 2.99,-3.331c0.26,-0.418 0.717,-0.672 1.209,-0.672c0.493,-0 0.95,0.254 1.21,0.672c-0,0 1.151,1.85 2.99,3.331c1.116,0.899 2.495,1.689 4.045,1.689c1.605,0 3.193,-0.82 4.542,-1.752c2.205,-1.522 3.782,-3.424 3.782,-3.424c0.271,-0.327 0.673,-0.516 1.097,-0.516c0.424,-0 0.826,0.189 1.096,0.516c-0,-0 1.596,1.927 3.59,3.47c1.148,0.887 2.411,1.706 3.558,1.706c0.785,0 1.423,0.638 1.423,1.423c-0,0.786 -0.638,1.423 -1.423,1.423c-1.68,0 -3.619,-1.002 -5.299,-2.301c-1.173,-0.907 -2.223,-1.932 -2.959,-2.705c-0.776,0.783 -1.912,1.828 -3.248,2.751c-1.817,1.254 -3.997,2.255 -6.159,2.255c-2.219,0 -4.233,-1.031 -5.83,-2.318c-0.984,-0.793 -1.804,-1.673 -2.415,-2.409c-0.61,0.736 -1.43,1.616 -2.414,2.409c-1.597,1.287 -3.611,2.318 -5.83,2.318Zm31.782,-20.397c0,0.785 -0.638,1.423 -1.423,1.423c-0.785,-0 -1.423,-0.638 -1.423,-1.423c-0,-6.506 -5.353,-11.859 -11.859,-11.859c-6.506,-0 -11.859,5.353 -11.859,11.859c0,0.785 -0.638,1.423 -1.423,1.423c-0.785,-0 -1.423,-0.638 -1.423,-1.423c-0,-8.067 6.638,-14.705 14.705,-14.705c8.067,-0 14.705,6.638 14.705,14.705Z" style="fill:#3a3a3a;"/></svg>