<?xml version="1.0" encoding="UTF-8" standalone="no"?><!DOCTYPE svg PUBLIC "-//W3C//DTD SVG 1.1//EN" "http://www.w3.org/Graphics/SVG/1.1/DTD/svg11.dtd"><svg width="100%" height="100%" viewBox="0 0 48 48" version="1.1" xmlns="http://www.w3.org/2000/svg" xmlns:xlink="http://www.w3.org/1999/xlink" xml:space="preserve" xmlns:serif="http://www.serif.com/" style="fill-rule:evenodd;clip-rule:evenodd;stroke-linejoin:round;stroke-miterlimit:2;"><path d="M24.988,5.53c-0.22,-0.33 -0.591,-0.529 -0.988,-0.529c-0.397,0 -0.768,0.199 -0.988,0.529l-7.125,10.687c-0.13,0.195 -0.199,0.424 -0.199,0.658c0,0.651 0.536,1.187 1.187,1.188l0.233,-0l-4.802,7.683c-0.118,0.188 -0.181,0.407 -0.181,0.629c0,0.652 0.536,1.188 1.188,1.188c-0,-0 0.453,-0 0.453,-0l-3.89,7.78c-0.083,0.165 -0.126,0.347 -0.126,0.532c0,0.651 0.536,1.188 1.188,1.188l10.687,-0l0,5.937l4.75,0l-0,-5.937l10.687,-0c0.652,-0 1.188,-0.537 1.188,-1.188c-0,-0.185 -0.043,-0.367 -0.126,-0.532l-3.888,-7.78c0,-0 0.454,-0 0.454,-0c0.651,-0 1.187,-0.536 1.187,-1.188c0,-0.222 -0.062,-0.441 -0.18,-0.629l-4.805,-7.683l0.233,-0c0.651,-0.001 1.187,-0.537 1.187,-1.188c-0,-0.234 -0.069,-0.463 -0.199,-0.658l-7.125,-10.687Zm-4.7,10.77c-0.209,-0.377 -0.607,-0.612 -1.038,-0.612l-0.157,-0l4.907,-7.36l4.907,7.36c-0,-0 -0.157,-0 -0.157,-0c-0.651,-0 -1.188,0.536 -1.188,1.187c0,0.223 0.063,0.441 0.181,0.63l4.802,7.683l-0.233,-0c-0.651,-0 -1.187,0.536 -1.187,1.187c-0,0.185 0.043,0.367 0.126,0.532l3.888,7.781l-22.28,-0l3.89,-7.781c0.083,-0.165 0.126,-0.347 0.126,-0.532c0,-0.651 -0.536,-1.187 -1.187,-1.187l-0.233,-0l4.802,-7.683c0.228,-0.366 0.24,-0.828 0.031,-1.205Z" style="fill:#3a3a3a;fill-rule:nonzero;"/></svg>