<?xml version="1.0" encoding="UTF-8" standalone="no"?><!DOCTYPE svg PUBLIC "-//W3C//DTD SVG 1.1//EN" "http://www.w3.org/Graphics/SVG/1.1/DTD/svg11.dtd"><svg width="100%" height="100%" viewBox="0 0 48 48" version="1.1" xmlns="http://www.w3.org/2000/svg" xmlns:xlink="http://www.w3.org/1999/xlink" xml:space="preserve" xmlns:serif="http://www.serif.com/" style="fill-rule:evenodd;clip-rule:evenodd;stroke-linejoin:round;stroke-miterlimit:2;"><path d="M14.182,30.545c-4.489,0 -8.182,-3.693 -8.182,-8.181c0,-4.489 3.693,-8.182 8.182,-8.182c1.636,-3.846 5.4,-6.546 9.818,-6.546c5.613,0 10.211,4.353 10.636,9.868l0.819,-0.049c3.59,-0 6.545,2.954 6.545,6.545c-0,3.591 -2.955,6.545 -6.545,6.545l-1.637,0c-0.898,0 -1.636,-0.738 -1.636,-1.636c-0,-0.898 0.738,-1.636 1.636,-1.636l1.637,-0c1.795,-0 3.272,-1.478 3.272,-3.273c0,-1.795 -1.477,-3.273 -3.272,-3.273l-3.273,0l-0,-1.636c-0,-4.489 -3.694,-8.182 -8.182,-8.182c-4.091,0 -7.445,2.978 -8.084,6.856c-0.54,-0.196 -1.129,-0.31 -1.734,-0.31c-2.693,-0 -4.909,2.216 -4.909,4.909c-0,2.693 2.216,4.909 4.909,4.909l1.636,-0c0.898,-0 1.637,0.738 1.637,1.636c-0,0.898 -0.739,1.636 -1.637,1.636l-1.636,0m9.818,-8.181l4.909,-0l-3.273,6.545l3.273,0l-6.136,11.455l1.227,-8.182l-4.091,-0l4.091,-9.818Z" style="fill:#3a3a3a;fill-rule:nonzero;"/></svg>